<svg width="1800" height="1800" viewBox="0 0 1800 1800" fill="none" xmlns="http://www.w3.org/2000/svg">
<rect width="1800" height="1800" fill="black"/>
<path d="M629.764 1307.21C616.561 1307.21 601.327 1316.36 595.914 1331.92C596.252 1338.01 596.59 1345.46 596.59 1352.57V1440.24C596.59 1449.04 605.049 1456.83 619.944 1458.52V1462.58H543.785V1458.52C558.342 1456.49 566.123 1448.71 566.123 1440.24V1364.08C566.123 1317.7 554.95 1307.21 534.979 1307.21C522.114 1307.21 507.904 1315.67 501.806 1329.89V1440.24C501.806 1449.04 510.264 1456.83 525.159 1458.52V1462.58H449V1458.52C463.557 1456.49 471.339 1448.71 471.339 1440.24V1335.3C471.339 1320.07 464.234 1310.94 449 1310.94V1306.88L497.407 1289.27L501.129 1291.64V1321.09L501.467 1321.77C511.964 1301.46 532.611 1289.95 548.521 1289.95C571.198 1289.95 587.785 1299.77 593.884 1326.51C603.704 1303.15 626.381 1289.95 643.306 1289.95C672.42 1289.95 691.375 1305.86 691.375 1352.57V1440.24C691.375 1449.04 699.834 1456.83 714.729 1458.52V1462.58H638.57V1458.52C653.126 1456.49 660.908 1448.71 660.908 1440.24V1364.08C660.908 1317.7 649.734 1307.21 629.764 1307.21Z" fill="white"/>
<path d="M810.174 1436.52C794.264 1457.17 773.279 1465.97 753.647 1465.97C732.323 1465.97 720.135 1451.08 720.135 1432.8C720.135 1410.12 733.677 1392.52 808.482 1368.83L808.821 1343.78C809.836 1308.24 800.016 1295.04 784.452 1295.04C765.497 1295.04 761.775 1310.27 757.039 1327.87C751.964 1346.49 743.159 1350.89 736.392 1350.89C729.625 1350.89 723.865 1344.12 723.865 1334.64C723.865 1312.64 753.317 1289.96 789.198 1289.96C823.048 1289.96 840.312 1301.81 839.297 1339.05C838.958 1356.99 838.282 1378.65 838.62 1402.34C838.958 1444.31 841.327 1449.39 850.132 1449.39C854.192 1449.39 857.914 1447.36 859.614 1444.66L863.335 1446.35C857.922 1458.54 850.809 1464.29 837.275 1464.29C823.742 1464.29 814.26 1457.52 810.2 1436.53L810.174 1436.52ZM775.647 1448.71C787.497 1448.71 800.692 1442.28 809.498 1430.43C808.483 1424 808.144 1416.89 808.144 1408.43L808.482 1374.24C765.497 1387.78 752.632 1401.66 752.632 1422.31C752.632 1438.56 760.752 1448.71 775.647 1448.71Z" fill="white"/>
<path d="M848.414 1516.07C848.414 1506.6 854.166 1499.83 863.309 1499.83C876.174 1499.83 881.926 1513.71 893.438 1513.71C904.274 1513.71 918.145 1492.72 932.702 1458.87L872.453 1314.33C868.055 1303.84 860.264 1299.1 849.776 1297.41V1293.35H928.642V1297.41C911.378 1300.11 904.95 1306.2 909.348 1318.05L948.951 1422.65C962.831 1388.12 976.711 1359.36 987.538 1323.14C991.259 1310.27 986.523 1301.14 968.582 1297.42V1293.36H1027.48V1297.08C1015.29 1299.45 1005.82 1306.89 997.011 1326.53C981.777 1360.72 965.529 1397.95 949.957 1435.52C923.897 1498.14 901.549 1536.74 872.106 1536.74C858.902 1536.74 848.414 1527.59 848.414 1516.09V1516.07Z" fill="white"/>
<path d="M1118.18 1307.21C1103.63 1307.21 1086.7 1316.36 1080.61 1329.89V1440.24C1080.61 1449.04 1089.07 1456.83 1103.97 1458.52V1462.58H1027.81V1458.52C1042.36 1456.49 1050.15 1448.71 1050.15 1440.24V1335.3C1050.15 1320.07 1043.04 1310.94 1027.81 1310.94V1306.88L1076.21 1289.27L1079.94 1291.64V1322.11C1090.09 1302.82 1110.74 1289.95 1131.73 1289.95C1163.21 1289.95 1185.21 1305.86 1184.87 1352.57L1184.19 1441.59C1185.21 1449.71 1193.34 1456.83 1207.55 1458.52V1462.58H1131.39V1458.52C1145.94 1456.49 1153.73 1448.71 1153.73 1440.24L1154.4 1360.7C1154.74 1317.71 1140.52 1307.21 1118.18 1307.21Z" fill="white"/>
<path d="M1209.58 1377.96C1209.58 1319.74 1241.06 1289.95 1285.4 1289.95C1323.65 1289.95 1348.69 1317.03 1348.69 1353.25L1347.34 1355.28H1243.08C1242.74 1359.68 1242.74 1364.07 1242.74 1368.82C1242.74 1418.58 1265.42 1448.02 1301.3 1448.02C1320.26 1448.02 1337.18 1437.19 1346.32 1424.67L1350.04 1427.38C1336.5 1452.76 1315.51 1465.96 1286.41 1465.96C1243.42 1465.96 1209.57 1430.08 1209.57 1377.95L1209.58 1377.96ZM1317.22 1349.53C1316.88 1313.32 1303 1295.04 1282.69 1295.04C1259.34 1295.04 1246.81 1313.65 1243.43 1349.53H1317.22Z" fill="white"/>
<path d="M579.666 1167.95C563.756 1188.6 542.771 1197.4 523.139 1197.4C501.816 1197.4 489.627 1182.51 489.627 1164.23C489.627 1141.55 503.169 1123.95 577.975 1100.26L578.313 1075.21C579.328 1039.67 569.516 1026.47 553.945 1026.47C534.989 1026.47 531.268 1041.7 526.531 1059.3C521.456 1077.92 512.651 1082.32 505.884 1082.32C499.118 1082.32 493.357 1075.55 493.357 1066.07C493.357 1044.07 522.809 1021.39 558.681 1021.39C592.532 1021.39 609.795 1033.24 608.78 1070.47C608.442 1088.41 607.765 1110.08 608.104 1133.77C608.442 1175.74 610.81 1180.82 619.615 1180.82C623.675 1180.82 627.397 1178.79 629.089 1176.09L632.81 1177.78C627.397 1189.97 620.283 1195.72 606.75 1195.72C593.217 1195.72 583.735 1188.95 579.675 1167.96L579.666 1167.95ZM545.139 1180.14C556.99 1180.14 570.184 1173.71 578.99 1161.86C577.975 1155.43 577.636 1148.32 577.636 1139.86L577.975 1105.67C534.989 1119.21 522.124 1133.09 522.124 1153.74C522.124 1169.99 530.253 1180.14 545.139 1180.14Z" fill="white"/>
<path d="M651.081 1141.55V1030.53H634.832V1027.14C652.434 1014.96 668.006 998.706 677.817 981.113L681.539 982.128V1025.11C692.374 1025.11 716.066 1024.44 726.216 1024.44V1031.88C718.435 1031.88 693.381 1030.53 681.539 1030.53V1130.04C681.539 1168.97 691.698 1179.8 708.961 1179.8C717.081 1179.8 724.533 1175.74 727.578 1172.7L730.623 1175.74C723.856 1187.93 709.976 1197.4 693.051 1197.4C669.021 1197.4 651.081 1185.21 651.081 1141.55Z" fill="white"/>
<path d="M732.663 1109.39C732.663 1051.17 764.145 1021.38 808.484 1021.38C846.733 1021.38 871.778 1048.45 871.778 1084.67L870.425 1086.7H766.166C765.828 1091.1 765.828 1095.5 765.828 1100.24C765.828 1150.01 788.505 1179.45 824.385 1179.45C843.341 1179.45 860.266 1168.61 869.401 1156.1L873.122 1158.8C859.58 1184.19 838.595 1197.39 809.49 1197.39C766.505 1197.39 732.654 1161.51 732.654 1109.38L732.663 1109.39ZM840.296 1080.95C839.957 1044.73 826.077 1026.45 805.769 1026.45C782.415 1026.45 769.888 1045.07 766.505 1080.95H840.296Z" fill="white"/>
<path d="M900.881 1171.67V968.574C900.881 956.724 894.115 950.634 878.543 949.957V945.897L927.627 929.648L931.349 932.017V1171.67C931.349 1180.46 939.807 1188.25 954.702 1189.95V1194.01H878.543V1189.95C893.1 1187.92 900.881 1180.13 900.881 1171.67Z" fill="white"/>
<path d="M982.454 1171.67V1065.04C982.454 1056.58 977.379 1048.45 960.115 1047.44V1043.38L1009.2 1020.7L1012.92 1023.07V1171.67C1012.92 1180.46 1021.38 1188.25 1036.27 1189.95V1194.01H960.115V1189.95C974.672 1187.92 982.454 1180.13 982.454 1171.67ZM995.657 954.363C1006.49 954.363 1015.29 963.16 1015.29 973.995C1015.29 984.83 1006.49 993.627 995.657 993.627C984.822 993.627 976.026 984.83 976.026 973.995C976.026 963.16 985.169 954.363 995.657 954.363Z" fill="white"/>
<path d="M1045.07 1109.39C1045.07 1051.17 1076.55 1021.38 1120.89 1021.38C1159.14 1021.38 1184.19 1048.45 1184.19 1084.67L1182.83 1086.7H1078.57C1078.24 1091.1 1078.24 1095.5 1078.24 1100.24C1078.24 1150.01 1100.91 1179.45 1136.79 1179.45C1155.75 1179.45 1172.67 1168.61 1181.81 1156.1L1185.53 1158.8C1171.99 1184.19 1151 1197.39 1121.9 1197.39C1078.91 1197.39 1045.06 1161.51 1045.06 1109.38L1045.07 1109.39ZM1152.71 1080.95C1152.37 1044.73 1138.49 1026.45 1118.19 1026.45C1094.83 1026.45 1082.3 1045.07 1078.92 1080.95H1152.71Z" fill="white"/>
<path d="M1213.3 1171.67V1066.73C1213.3 1051.5 1206.19 1042.37 1190.96 1042.37V1038.31L1239.37 1020.7L1243.09 1023.07V1059.63C1258.66 1038.98 1279.31 1021.38 1296.23 1021.38C1309.1 1021.38 1319.59 1028.48 1319.59 1041.01C1319.59 1050.16 1312.82 1056.58 1303 1056.58C1291.83 1056.58 1288.44 1048.13 1272.53 1048.13C1263.05 1048.13 1252.56 1055.57 1243.76 1066.4V1171.68C1243.76 1180.47 1252.22 1188.26 1273.89 1189.96V1194.02H1190.96V1189.96C1205.52 1187.93 1213.3 1180.14 1213.3 1171.68V1171.67Z" fill="white"/>
<path d="M1143.24 694.466C1139.95 693.825 1131.96 697.763 1131.31 697.671C1131.22 699.48 1131.18 701.312 1131.18 703.167C1131.18 705.846 1131.38 708.708 1131.77 711.662L1135.5 706.762C1137.54 704.083 1144.16 696.298 1144.57 695.45C1144.76 695.107 1143.59 694.58 1143.2 694.489H1143.24V694.466ZM1138.87 732.612L1136.65 732.841C1137.22 734.65 1137.79 736.436 1138.41 738.153C1139.92 737.031 1141.09 735.887 1141.6 734.788C1141.96 733.963 1139.88 732.521 1138.89 732.612H1138.87ZM1143.24 694.466C1139.95 693.825 1131.96 697.763 1131.31 697.671C1131.22 699.48 1131.18 701.312 1131.18 703.167C1131.18 705.846 1131.38 708.708 1131.77 711.662L1135.5 706.762C1137.54 704.083 1144.16 696.298 1144.57 695.45C1144.76 695.107 1143.59 694.58 1143.2 694.489H1143.24V694.466ZM1138.87 732.612L1136.65 732.841C1137.22 734.65 1137.79 736.436 1138.41 738.153C1139.92 737.031 1141.09 735.887 1141.6 734.788C1141.96 733.963 1139.88 732.521 1138.89 732.612H1138.87ZM709.069 378.669C701.674 378.807 695.675 369.625 690.019 379.746C688.233 382.951 687.958 386.477 687.546 390.324L680.585 399.071C674.312 406.947 668.358 420.914 666.801 430.806C665.405 439.599 663.367 448.185 662.589 457.046C661.902 465.06 661.032 472.204 658.994 480.012C653.865 499.612 651.918 519.509 654.368 539.727C656.933 560.907 662.909 580.965 672.137 600.153L688.21 633.468C694.576 646.68 699.911 659.8 703.963 673.79C700.071 682.056 695.743 688.993 690.706 696.206L667.855 729.109C647.568 758.326 637.493 793.175 638.02 828.917C638.134 836.588 639.256 843.801 642.576 850.532C643.996 853.44 648.804 854.493 651.735 853.715C660.23 851.448 667.946 847.968 675.273 843.411C692.835 832.466 692.424 813.256 693.454 795.762C693.935 787.52 706.505 775.773 713.076 770.896L753.49 740.878C755.711 745.091 757.451 748.366 759.626 752.029C768.854 767.462 775.311 783.856 780.119 801.258C783.119 812.088 785.477 822.552 786.255 833.795C774.624 838.534 761.824 845.77 757.245 858.088C757.107 860.721 757.291 864.385 759.283 866.446C761.138 868.346 764.526 869.377 767.32 869.926C783.6 873.269 800.452 872.971 816.365 868.758C822.112 867.224 825.089 863.286 825.616 857.745C826.348 850.097 827.058 842.862 827.241 835.145C827.837 812.248 826.051 789.947 821.929 767.279C817.373 742.412 811.419 718.393 804.298 694.26L825.501 696.778C833.95 696.916 841.666 695.267 848.81 690.779C851.146 689.314 854.008 688.535 856.893 688.421C875.302 687.734 896.619 684.048 912.945 674.82C907.931 698.77 905.275 721.782 905.091 745.618L904.816 785.367C904.702 800.662 900.122 814.721 890.46 826.559C879.24 833.817 860.259 844.144 853.848 855.776C851.466 860.08 850.207 865.507 852.359 870.132C853.687 872.949 857.466 874.757 860.465 875.33C869.578 877.047 878.462 878.169 887.598 878.673C895.772 879.131 902.367 876.337 908.709 871.712C936.277 851.631 947.52 830.2 958.945 799.014L968.768 772.247C975.317 754.41 983.239 737.238 994.962 722.309L1003.73 711.158C1011.43 720.133 1019.21 728.514 1028.03 736.596L1069.38 774.583C1072.47 777.445 1076 779.116 1079.84 780.902C1061.32 789.077 1036.75 793.381 1024.2 773.529C1019.6 766.271 1015.55 758.875 1011.59 751.136C1010.28 748.595 1008.77 746.671 1005.45 746.625C996.405 746.534 988.986 752.098 985.277 760.043C984.384 761.921 982.941 763.867 983.354 766.202C987.338 787.886 994.573 803.708 1014.56 814.744C1037.76 827.544 1068.71 825.483 1092.8 813.576C1092.39 819.415 1094.02 828.185 1088.18 830.703L1075.47 836.199C1066.84 839.931 1061.07 847.235 1058.34 856.188C1057.33 859.531 1056.21 863.332 1057.22 866.766C1058.46 871.025 1063.13 873.2 1067.64 873.223C1081.31 873.315 1094.75 871.3 1108.03 868.3C1112.77 867.224 1116.59 865.163 1119 860.928C1121.45 856.6 1123.69 852.295 1125.32 847.327C1132.18 826.422 1135.89 804.418 1134.68 782.436C1134.5 779.231 1134.2 778.338 1136.19 775.796C1138.57 772.751 1140.7 769.522 1142.65 766.202C1145.33 761.669 1147.69 756.929 1149.91 752.098C1150.43 750.999 1150.91 749.877 1151.42 748.778C1154.28 742.366 1156.68 735.818 1158.4 729.086C1159.94 723.133 1160.97 717.042 1161.38 710.791C1161.49 709.189 1161.58 707.609 1161.58 706.006C1161.63 703.945 1161.58 701.862 1161.52 699.824C1161.1 688.971 1159.11 678.369 1155.86 668.134C1154.23 663.028 1152.27 658.014 1150 653.091C1149.06 651.076 1148.14 649.061 1147.21 647.092C1145.79 644.115 1144.3 641.184 1142.67 638.391C1140.66 634.842 1138.41 631.453 1135.73 628.202C1120.16 609.151 1102.69 592.162 1083.32 577.004C1061.02 559.533 1035.81 547.535 1008.2 541.33C991.07 537.461 974.423 535.537 956.884 535.423C941.154 535.308 926.386 537.003 910.793 538.766L865.983 543.895C854.924 545.154 844.345 545.52 833.286 545.337C806.634 544.879 783.119 536.041 767.114 514.243C763.29 509.022 760.245 504.329 756.375 498.307C761.985 495.971 772.083 494.872 777.647 495.971C787.927 497.963 801.482 500.848 810.16 492.766C813.114 489.995 814.419 485.37 814.602 481.409L814.945 473.738C816.296 471.929 819.479 469.914 820.097 467.647C822.089 460.412 821.678 452.673 818.838 445.735C817.075 441.384 813.595 437.721 810.069 434.767L795.781 422.815C785.225 414 783.004 401.795 776.158 397.674C765.785 391.423 756.352 386.432 745.613 380.822C741.217 378.532 734.783 377.57 729.975 377.708M1076.04 624.721C1074.9 622.546 1074 620.371 1073.36 618.516L1086.02 628.087C1094.66 634.636 1101.94 641.963 1107.64 651.328C1115.77 664.768 1121.77 679.285 1123.37 695.084C1123.55 696.664 1123.67 698.244 1123.76 699.824C1123.99 703.487 1124.06 707.128 1123.9 710.769C1123.44 721.919 1121.08 733.002 1116.23 743.969C1103.56 731.788 1095.05 722.377 1089.99 705.388C1081.22 675.759 1089.78 651.007 1076.06 624.698H1076.04V624.721ZM1154.39 702.823L1149.15 706.83C1146.38 708.937 1135.02 718.118 1137.43 721.851C1137.95 722.652 1140.08 722.927 1141.05 722.4C1142.33 721.69 1154.07 714.661 1152.93 719.63C1151.74 724.782 1147.75 740.077 1145.58 744.13L1142.81 749.35L1141.46 751.869C1139.47 751.915 1137.47 752.075 1135.48 752.373C1132.5 752.83 1129.55 753.632 1126.83 754.891C1126.03 755.258 1127.03 757.593 1127.77 757.822C1130.72 758.669 1133.21 760.753 1134.54 763.798C1130.7 770.072 1126.37 775.361 1121.42 781.04L1109.68 776.552C1108.6 776.14 1106.45 778.2 1106.75 779.345C1107.85 783.284 1109.68 786.283 1112.42 789.695C1105.74 795.831 1097.89 801.212 1089.62 805.356C1087.6 802.723 1080.51 796.655 1078.24 797.342C1076.61 797.823 1077.14 807.921 1073.48 811.584C1065.87 814.103 1058.11 814.882 1050.35 814.95C1049.07 811.126 1044.95 803.685 1042.84 801.258C1042.52 800.869 1040.8 801.83 1040.62 802.426L1036.98 814.034C1026.1 812.271 1016.14 807.898 1007.88 800.869C1009.87 799.151 1016.88 793.793 1015.09 791.549C1013.62 789.672 1003.55 792.397 1000.55 792.809C996.016 785.779 992.581 777.514 992.421 769.179C992.283 762.287 996.794 756.815 1002.91 754.777L1004.3 754.319C1004.63 754.204 1004.21 755.67 1004.1 756.036C1000.53 769.66 999.84 766.843 1000.27 782.642C1000.34 784.474 1002.68 785.184 1003.73 783.696L1012.98 770.644C1013.12 770.438 1013.58 769.729 1013.58 769.683C1013.62 769.683 1014.04 770.164 1014.13 770.347L1017.74 776.666C1019.28 779.345 1016.05 791.824 1027.43 801.258C1031.12 802.197 1029.7 791.023 1029.86 789.397L1043.37 794.091C1044.95 795.991 1047.03 798.648 1049.34 799.724L1063.84 806.524C1065.67 804.601 1061.96 798.212 1061.36 797.342L1059.51 794.755L1058.96 794.022C1058.64 793.564 1072.88 791.091 1075.31 790.038L1081.12 790.84L1096.51 792.923C1097.45 793.038 1099.05 792.763 1099.62 792.213C1102.81 789.077 1094.93 784.085 1092.34 782.276C1097.75 778.727 1102.62 775.018 1107.14 770.53L1112.33 769.82C1119.25 768.881 1123.23 771.011 1124.4 768.973C1124.72 768.446 1124.22 766.752 1123.67 766.294L1117 760.753C1116.16 760.043 1116.41 759.127 1117.07 757.982L1122.54 748.228C1124.58 746.396 1127.93 744.519 1131.22 742.618C1133.81 741.13 1136.37 739.665 1138.34 738.176C1139.85 737.054 1141.02 735.887 1141.53 734.81C1141.89 733.986 1139.81 732.521 1138.82 732.635L1136.6 732.864L1128.29 733.711C1128.22 733.574 1128.06 733.299 1127.97 733.162V733.116H1127.95C1129.62 726.155 1130.49 719.584 1131.18 712.417L1131.75 711.662L1135.48 706.739C1137.52 704.06 1144.14 696.275 1144.55 695.427C1144.73 695.084 1143.56 694.557 1143.18 694.466C1139.88 693.825 1131.89 697.763 1131.27 697.671H1131.22C1131.15 697.328 1130.9 696.366 1130.83 695.885L1128.91 682.88C1128.48 680.888 1127.81 678.621 1127.03 676.263C1123.51 665.753 1117.44 653.182 1117.44 653.182C1118.88 649.817 1120.3 645.924 1120.76 642.032L1121.31 637.59C1121.35 637.338 1121.06 636.353 1120.99 636.101C1120.92 635.826 1120.23 636.582 1120 636.926C1117.94 640.04 1115.17 642.696 1112.31 644.939C1108.23 639.261 1104.43 634.315 1099.56 629.759C1097.93 628.225 1098 627.515 1097.93 625.225C1097.86 621.516 1097.2 617.692 1096.79 613.845L1096.58 612.036C1096.53 611.67 1095.46 612.449 1095.25 612.792L1090.88 620.417C1090.67 620.76 1090.37 621.47 1090.17 621.401C1089.85 621.287 1088.95 620.898 1088.68 620.669C1080.41 613.914 1071.44 607.732 1065.07 598.916C1061.8 594.406 1061.02 588.452 1058.87 583.301L1055.64 575.516C1054.72 573.363 1049.71 576.34 1048.52 582.224C1046.57 591.91 1045.82 601.687 1044.69 611.464C1042.2 611.235 1040.23 612.449 1039.8 614.99L1036.98 630.652L1034.03 627.194C1033.36 626.416 1031.35 625.706 1030.2 626.004C1028.99 626.324 1027.93 628.27 1027.93 629.827V638.711C1027.96 639.124 1027.48 640.475 1027.36 640.841C1027.22 641.184 1026.45 640.177 1026.01 639.856C1024.57 638.94 1022.64 638.002 1021.16 638.07C1019.39 638.139 1017.81 640.223 1017.65 642.1C1017.22 647.847 1016.33 653.16 1015.2 658.495L1011.29 654.762C1010.88 654.373 1009 655.609 1009.04 656.182L1009.41 663.074C1009.85 671.18 1009 679.308 1005.84 686.864L1004.12 680.43C1003.92 679.629 1000.98 679.606 1000.66 680.361C999.954 682.239 999.13 685.17 998.763 687.253C997.275 695.656 994.413 703.052 990.955 710.997L988.414 716.882C984.407 715.6 980.789 716.882 976.805 717.729C968.791 719.424 961.922 722.332 955.121 726.728L949.992 730.048C951.984 731.032 953.656 731.101 955.992 730.872L969.18 729.544C970.05 730.071 971.584 730.941 972.409 731.055C973.233 731.17 974.195 729.407 974.813 728.308C976.141 727.483 979.301 727.667 981.018 728.147L972.042 742.71C964.967 744.496 960.25 747.702 954.183 752.533L967.234 752.189L960.044 769.248C957.114 769.11 953.565 768.95 950.474 769.614C942.78 771.263 935.75 771.24 927.233 771.904C936.987 777.193 946.031 776.071 956.541 779.139L945.665 809.455C938.933 807.738 932.11 806.547 924.851 807.463C928.561 810.027 932.614 809.638 934.858 812.889C936.621 815.477 938.384 817.789 940.788 820.033C935.064 832.306 927.301 843.274 917.341 852.822L915.464 844.007L912.441 831.505C912.258 830.749 911.068 829.467 910.312 829.444C909.556 829.444 908.434 830.887 908.343 831.688C906.809 844.167 904.336 851.242 906.007 863.95C903.259 866.171 900.397 869.835 897.032 870.819C889.934 872.926 882.881 871.071 875.348 870.521C878.554 865.118 882.126 861.088 886.201 856.394C886.934 855.547 887.049 853.051 886.408 852.25C885.744 851.448 883.362 851.219 882.378 851.929C875.257 857.058 868.96 862.141 862.617 868.117L856.962 867.339C857.694 856.096 870.814 848.059 879.103 841.763L877.798 846.205C875.829 852.891 886.499 845.495 890.025 841.694C902.55 828.162 911.503 812.363 913.105 793.77C917.067 789.672 922.699 788.435 928.401 786.901C923.523 784.657 918.898 784.199 913.609 783.856V753.311C922.882 751.754 930.576 754.548 937.331 750.655L943.146 747.312C939.025 747.427 936.369 747.747 933.003 747.198C921.669 745.297 923.798 742.664 913.975 741.13L914.388 730.712C918.83 729.659 923.111 728.216 926.867 725.423C932.385 721.347 938.155 720.431 945.55 718.828C936.025 713.974 925.698 714.798 915.624 716.447L917.731 698.381C926.683 697.58 935.201 697.213 943.971 695.702C950.451 694.58 956.129 694.099 962.998 694.947C950.222 687.345 940.536 691.947 926.271 688.513L919.654 686.933C922.241 673.469 924.188 661.998 925.676 656.228C927.92 663.875 932.637 665.638 939.483 668.363C939.483 668.363 951.939 672.141 957.205 675.324C964.761 679.926 976.805 687.276 982.346 686.154C981.224 679.835 965.357 666.852 948.161 655.953C940.513 651.099 933.14 636.445 933.14 636.445C937.834 623.302 944.2 605.808 949.695 593.261C951.046 590.17 955.534 580.919 954.32 578.79C954.091 578.378 952.351 578.79 951.939 579.179C940.147 590.238 928.355 622.065 922.837 638.116L917.204 644.115C915.327 646.107 911.663 645.924 908.732 645.993C907.542 646.016 905.87 647.87 904.908 648.763L904.336 649.313C904.221 649.427 903.512 648.466 903.443 648.099C902.115 641.803 900.397 633.262 898.108 626.507C894.788 616.753 891.033 607.182 887.232 597.84C887.026 597.382 885.835 596.718 885.377 596.627C884.804 596.535 883.728 597.886 883.751 598.619L884.507 616.387C885.079 629.461 885.583 642.192 884.965 655.312C883.316 654.579 881.553 653.801 880.225 653.663C877.477 653.343 874.73 659.044 872.692 658.38C870.288 656.182 867.288 655.174 864.312 657.464L853.779 619.592C853.779 619.592 849.909 628.499 850.001 639.078C850.047 643.451 850.39 653.457 849.612 659.479H840.247C828.73 659.136 823.097 671.294 815.678 665.661C812.587 663.326 808.603 662.204 804.688 661.128C802.764 660.578 799.925 657.281 799.65 655.289C798.849 649.473 798.757 643.932 794.521 638.803L789.415 657.876C787.675 664.448 787.515 671.065 788.293 677.82C786.828 677.659 784.973 677.453 784.034 677.682C782.958 677.98 782.157 680.499 782.157 681.598V687.001C779.181 686.406 776.685 684.551 774.693 686.658C773.044 688.421 773.342 691.924 773.044 694.42L772.815 696.252C772.769 696.595 771.372 695.336 771.418 694.741C771.922 686.887 772.953 674.362 774.693 665.593C776.021 658.861 777.921 653.549 778.448 646.542C774.372 652.015 773.296 657.853 771.098 663.669C767.297 673.767 764.549 683.819 762.855 694.535C760.977 706.418 759.466 720.248 751.978 729.865C739.843 718.233 725.739 720.889 710.558 722.79C709.688 722.904 708.291 724.095 708.314 724.804C708.36 725.514 709.413 726.911 710.26 727.14L724.113 731.193C730.822 733.139 736.752 735.887 742.911 739.367C742.316 740.168 741.561 741.153 740.874 741.68L708.154 766.889C699.201 764.897 690.133 765.195 681.02 767.736C680.105 767.988 678.799 769.545 678.731 770.415C678.616 771.4 679.99 773.163 681.02 773.644L693.751 779.574L689.195 786.26C679.624 787.359 689.172 800.525 682.99 820.331C680.082 829.604 674.54 833.749 666.069 838.923C661.123 831.07 662.772 818.682 660.161 809.707C655.284 818.018 652.491 828.139 655.215 835.809L657.895 843.32L648.3 847.006C641.477 830.818 643.607 820.881 645.324 804.326C653.338 801.281 656.2 793.908 663.298 789.672C667.649 787.084 671.633 784.634 675.388 781.04C674.815 780.307 673.236 779.414 672.64 779.574L657.001 783.284C654.322 783.925 651.85 785.207 648.942 786.489C651.758 774.148 656.36 762.379 662.199 750.953C681.135 748.801 695.995 756.036 714.175 748.297C715.183 747.862 716.328 746.236 716.099 745.389C715.847 744.565 714.016 743.58 712.962 743.534C691.279 742.458 691.21 737.879 671.518 734.536L692.561 703.739C703.826 698.473 712.642 698.885 724.411 695.908C737.851 692.474 744.011 679.01 741.377 676.904C738.286 674.408 730.982 681.666 720.701 683.086L705.841 685.124L705.337 684.414C718.938 663.944 720.357 633.926 721.571 609.838C722.624 589.231 724.205 572.287 733.455 553.626C737.485 545.497 743.095 539.292 749.872 532.79C745.819 532.4 744.056 535.583 741.4 537.369C734.188 542.223 728.83 548.795 724.823 556.625C714.153 577.508 714.152 599.077 713.076 622.157C712.939 622.432 712.733 622.752 712.596 623.004C711.748 620.714 708.863 611.853 706.184 614.28L703.758 616.501L702.659 616.662C701.124 612.151 696.453 615.013 696.888 612.288C697.346 609.449 695.995 601.183 697.048 593.009C698.857 578.744 706.642 570.432 713.901 558.755C714.542 557.725 713.306 556.534 712.298 557.244C705.498 562.121 694.278 570.295 691.988 573.73C683.219 586.758 683.86 597.107 683.562 602.168C681.479 601.985 675.045 585.201 675.045 585.201C677.22 582.98 684.409 567.845 685.783 565.166C689.355 558.091 695.743 548.657 699.43 543.391C700.231 542.269 699.018 540.781 697.735 541.376C693.889 543.162 688.302 546.093 683.837 549.688C670.053 560.793 668.679 565.693 668.679 565.693C667.924 563.288 667.259 560.884 666.641 558.457C666.069 556.076 665.542 553.695 665.061 551.29C664.764 549.848 663.481 546.528 664.443 545.337C664.97 544.673 666.504 544.147 667.236 543.689C668.084 543.139 668.931 542.59 669.778 541.994C671.518 540.758 673.19 539.476 674.815 538.125C681.341 532.79 687.294 526.745 694.255 521.959C696.842 520.196 699.59 518.593 701.719 516.281C702.567 515.365 703.345 514.151 703.002 512.984C700.598 512.892 698.262 513.396 695.926 513.9C690.912 514.999 685.852 516.075 681.25 518.319C679.441 519.189 677.723 520.219 676.006 521.249C673.007 523.058 670.007 524.867 667.008 526.653C666.252 527.111 663.39 529.447 662.589 529.195C661.742 528.943 662.084 525.623 662.062 524.89C662.039 523.196 662.657 504.42 663.115 504.512C672.068 506.023 677.266 507.443 684.18 502.703L688.393 499.795C688.393 499.795 687.615 499.383 687.34 499.222C683.997 499.383 681.066 499.085 678.067 498.123L664.58 493.727C666.71 483.675 668.542 474.952 669.435 465.289L671.976 437.721C673.716 418.9 677.998 413.336 688.966 397.972L689.859 399.002C692.011 405.184 695.972 410.588 702.429 412.282C703.231 412.488 704.445 412.488 704.948 412.122C705.521 411.71 704.65 409.901 704.032 409.374C696.041 402.711 690.569 391.583 696.064 381.188L711.359 388.675C713.237 389.591 715.778 389.82 717.793 389.66C717.839 386.111 715.206 385.035 712.641 383.272C712.321 383.409 713.603 382.722 713.763 382.722L728.166 383.02C733.18 383.134 737.256 383.684 741.95 384.806L745.682 385.722C740.141 388.881 733.959 391.95 731.005 398.361C738.607 395.728 743.736 390.645 751.475 389.889C753.513 389.683 756.329 392.064 758.298 392.911L759.168 393.804C753.627 395.911 749.643 397.766 745.247 401.154C755.207 400.628 759.099 397.445 769.792 399.002C772.563 399.414 777.394 405.001 778.333 406.581L782.248 413.175C784.813 417.526 787.538 421.83 791.407 425.196L808.489 440.148C811.099 442.438 813.572 445.62 813.892 449.192C811.259 451.207 806.382 453.016 803.062 451.734C800.383 450.726 793.995 445.895 793.445 447.658L793.124 448.757C794.819 450.291 796.696 451.848 798.849 453.039L815.198 462.175C814.396 466.274 811.58 469.25 808.512 471.929C801.276 478.272 791.774 481.34 782.203 478.569L775.563 474.402C774.876 473.967 772.517 474.059 772.243 474.746C771.991 475.455 772.242 477.196 772.746 477.791C781.836 488.163 798.849 484.225 809.473 478.111C810.343 484.454 806.016 489.72 799.971 491.483C789.576 494.529 777.509 486.446 769.93 487.728L755.848 490.064C743.026 492.193 730.387 488.461 719.442 481.798C713.191 478.02 708.634 473.028 704.719 466.892C699.636 458.878 697.85 450.017 695.904 440.469C692.263 450.635 694.805 460.618 698.583 469.891C704.444 484.271 721.915 495.444 737.21 497.093L745.957 505.222C745.705 504.993 740.53 506.847 739.82 507.007C737.851 507.465 735.836 507.809 733.867 508.198C730.204 508.908 726.403 509.595 723.266 511.656C719.74 513.945 717.977 516.075 717.977 516.075C717.267 516.899 716.557 517.792 715.847 518.822L707.833 532.309L707.306 533.591C713.397 526.333 720.838 521.936 729.608 519.051C744.468 514.174 746.232 518.593 758.138 514.083C762.031 519.715 766.06 524.73 771.075 529.561C771.785 530.271 769.197 537.552 768.877 538.651C768.052 541.559 767.114 544.444 766.129 547.283C764.252 552.825 762.168 557.999 760.588 563.701C757.084 576.546 754.085 589.643 753.673 603.015C759.099 592.322 764.526 581.652 769.953 570.982C772.609 565.761 775.494 560.93 778.677 556.076C779.501 554.839 786.164 540.941 785.088 540.391L797.429 546.619C798.986 547.398 800.109 553.076 800.544 554.656C801.299 557.496 801.734 560.197 801.711 563.128V624.492C801.711 624.744 801.711 625.019 801.871 625.225C802.283 625.798 803.154 625.317 803.634 624.813C807.161 621.127 809.221 616.249 810.366 611.281C811.534 606.312 811.877 601.183 812.358 596.1C813.114 588.086 814.328 580.118 815.907 572.218C816.732 568.211 817.648 564.204 818.678 560.243C819.067 558.732 819.411 557.61 820.304 556.351C820.624 555.893 822.685 552.802 822.914 552.802C827.516 553.305 832.118 552.916 836.263 553.992C840.338 555.046 841.369 556.946 843.224 560.587C844.345 562.808 845.399 565.074 846.315 567.364C851.741 581.24 855.657 595.711 858.015 610.411C858.748 615.013 859.32 619.661 860.396 624.195C860.534 624.79 860.854 625.569 861.495 625.523C861.77 625.523 861.999 625.317 862.205 625.156C863.945 623.599 864.472 621.058 864.815 618.745C865.227 615.929 865.434 613.09 865.525 610.228C866.029 594.314 866.647 578.355 865.8 562.441C865.709 560.632 865.594 558.846 865.456 557.038C865.388 556.236 864.61 553.237 865.159 552.573C865.754 551.84 868.41 551.977 869.303 551.863C873.722 550.878 879.401 549.665 883.637 551.542C888.331 553.603 895.246 557.198 897.764 561.525C907.656 578.195 914.777 616.295 915.601 615.883C916.128 615.631 918.234 605.35 919.173 599.626C921.302 586.552 921.966 574.165 919.288 561.182C918.555 557.656 917.502 551.13 918.303 547.558C919.013 544.49 921.508 544.879 924.371 544.582C927.759 544.215 931.95 542.132 935.315 542.75C939.254 543.46 942.734 550.26 945.07 553.557C951.527 562.647 956.999 572.608 959.724 583.461C962.38 594.016 966.57 615.356 966.57 615.356C966.57 615.356 972.294 583.415 969.822 573.615L961.601 542.773C982.712 544.009 985.941 542.223 997.206 563.54C1002.7 573.959 1005.31 584.812 1006.94 596.398C1008.24 605.511 1006.07 610.914 1008.06 613.342C1008.49 613.868 1010.58 613.09 1010.69 612.288C1011.06 609.838 1011.4 606.312 1011.43 603.473L1011.49 590.719C1011.54 582.27 1010.74 573.844 1009.34 565.51C1008.45 560.22 1008.17 555.641 1009.5 550.123C1012.39 550.604 1014.63 551.199 1017.26 552.046C1026.7 568.967 1034.21 596.764 1034.64 615.311C1034.64 615.837 1034.92 616.913 1035.01 617.097C1035.1 617.303 1035.42 617.394 1035.54 617.211C1038.03 613.731 1039.43 594.864 1039.8 589.506C1039.86 588.338 1040.96 586.117 1040.78 584.972L1038.21 568.738C1038.05 567.799 1036.61 558.755 1037.96 559.213C1046.21 562.029 1063.26 571.417 1071.12 576.958C1069.22 585.041 1078.17 596.924 1083.05 603.358C1084.12 604.778 1084.95 606.358 1086.96 606.037C1084.42 599.031 1082.54 592.826 1080.76 585.407L1081.9 584.468C1091.59 592.07 1100.36 599.718 1108.97 608.373C1105.01 618.448 1110.62 619.226 1111.44 630.766C1111.9 637.406 1114.81 613.273 1115.45 615.196L1125.98 626.416C1129.32 629.988 1132.16 633.743 1135.46 638.116C1132.76 640.406 1130.65 642.444 1130.15 646.13L1128.86 655.449C1128.82 655.724 1128.8 656.273 1128.8 656.502C1128.8 656.731 1129.83 656.182 1130.01 655.861C1131.86 652.793 1135.02 649.45 1138.3 646.588C1138.82 646.13 1139.35 645.672 1139.88 645.237C1141.27 647.275 1142.49 649.45 1143.59 651.694C1145.56 655.701 1147.16 660.006 1148.58 664.379C1149.24 666.417 1149.86 668.478 1150.46 670.516C1150.39 670.584 1150.3 670.676 1150.23 670.722C1144.69 675.873 1145.49 676.95 1140.57 682.834C1140.06 683.429 1139.53 684.3 1139.72 684.826C1139.95 685.444 1141.87 686.246 1142.53 686.063L1151.88 683.498L1152.88 683.2C1153.91 682.903 1154.76 700.35 1154.39 702.709V702.823ZM1138.87 732.612L1136.65 732.841C1137.22 734.65 1137.79 736.436 1138.41 738.153C1139.92 737.031 1141.09 735.887 1141.6 734.788C1141.96 733.963 1139.88 732.521 1138.89 732.612H1138.87ZM1143.24 694.466C1139.95 693.825 1131.96 697.763 1131.31 697.671C1131.22 699.48 1131.18 701.312 1131.18 703.167C1131.18 705.846 1131.38 708.708 1131.77 711.662L1135.5 706.762C1137.54 704.083 1144.16 696.298 1144.57 695.45C1144.76 695.107 1143.59 694.58 1143.2 694.489H1143.24V694.466Z" fill="white"/>
<path d="M835.574 622.113C833.743 631.34 834.681 648.215 832.621 650.253C832.163 650.711 830.423 649.818 830.148 649.154C823.92 633.538 819.363 621.769 823.645 604.619C825.82 595.85 826.645 587.378 826.118 578.31C825.981 575.838 826.049 573.617 826.988 570.777L832.827 582.73C833.857 584.859 834.43 588.019 835.208 590.377C838.666 600.864 837.681 611.443 835.552 622.113H835.574Z" fill="white"/>
<path d="M737.649 636.584C736.298 647.987 731.146 654.948 731.146 654.948C730.162 647.506 729.337 618.312 729.337 618.312C727.918 603.131 732.635 596.583 739.275 584.608L746.922 570.801C748.891 582.478 748.113 590.08 743.35 600.246C740.076 607.23 737.855 613.756 737.786 621.609L737.672 636.584H737.649Z" fill="white"/>
<path d="M784.674 627.516C784.629 628.317 784.011 629.485 783.598 629.76C783.095 630.126 781.606 629.165 781.377 628.386C776.706 612.496 775.859 601.711 782.27 585.912C784.171 581.218 785.613 576.593 786.529 571.533C788.109 562.832 795.894 581.516 789.803 599.124C786.598 608.374 785.224 617.395 784.674 627.493V627.516Z" fill="white"/>
<path d="M995.992 645.195C996.931 648.515 999.221 667.68 995.512 669.352L982.323 640.227C979.644 634.273 981.132 628.503 983.742 622.939C985.803 618.543 986.192 612.178 989.284 612.521C992.649 612.888 989.032 620.398 990.383 625.206L995.992 645.195Z" fill="white"/>
<path d="M779.064 433.009C769.401 432.963 753.785 435.367 746.756 428.246C752.549 424.079 765.142 414.096 769.745 424.331C770.5 426.025 771.897 427.857 773.133 429.117C775.377 430.238 776.728 430.742 779.064 432.986V433.009Z" fill="white"/>
<path d="M682.808 451.19C682.259 455.288 683.724 458.975 681.687 461.585C681.458 461.883 680.679 460.578 680.633 460.211C680.153 455.265 679.534 449.953 678.756 444.985C677.634 437.681 677.611 430.491 680.221 423.553C682.305 417.966 685.03 412.814 689.197 408.281C689.632 407.8 690.479 410.09 690.204 410.708C688.258 415.127 686.976 420.393 686.312 425.27L682.831 451.213L682.808 451.19Z" fill="white"/>
<path d="M697.917 482.398C701.672 484.435 704.878 486.153 707.694 489.015L694.803 487.16C682.53 485.42 678.18 478.459 676.188 466.141L682.049 471.041C685.942 474.292 693.246 479.81 697.94 482.352V482.398H697.917Z" fill="white"/>
<path d="M747.309 457.76C749.003 459.523 750.468 461.035 751.796 462.935C743.393 460.966 738.676 454.738 736.318 447.228L731.876 432.963C731.738 432.482 731.83 431.543 731.944 431.177C732.059 430.788 733.387 431.314 733.753 431.635C742.981 439.397 737.737 449.357 747.354 457.76H747.309Z" fill="white"/>
<path d="M712.002 403.764C712.483 404.108 713.033 405.528 712.758 405.985C710.766 409.42 700.073 395.819 701.08 391.469C704.767 396.231 707.286 400.261 711.979 403.742H712.002V403.764Z" fill="white"/>
<path d="M716.992 413.499C720.198 407.843 722.076 407.454 723.015 409.4C723.999 411.461 716.535 420.093 716.626 424.81C716.764 431.244 722.145 436.625 722.58 441.639C723.015 446.653 721.252 454.667 724.274 459.682C728.029 465.956 733.525 470.512 740.302 472.802C744.904 474.382 743.576 474.977 742.111 475.183C738.585 475.641 730.021 475.183 723.885 467.696C718.114 460.667 715.779 455.538 717.428 449.081C718.756 443.906 716.329 434.953 713.604 430.282C710.879 425.588 714.245 418.33 716.992 413.521V413.499Z" fill="white"/>
<path d="M796.4 459.496C797.156 456.932 789.691 456.657 786.463 456.794C783.234 456.909 778.815 458.695 778.632 464.442C778.472 469.159 783.99 471.425 789.119 471.86C793.149 472.181 797.568 471.471 798.301 471.151C798.369 471.151 798.346 471.036 798.301 471.013C797.385 470.807 793.493 470.006 789.6 469.044C785.158 467.945 781.655 465.884 782.204 463.457C782.754 461.007 785.822 459.29 789.325 459.496C792.828 459.725 796.103 460.481 796.378 459.496H796.4Z" fill="white"/>
<path d="M928.45 337L941.432 382.245L986.677 395.227L941.432 408.21L928.45 453.455L915.467 408.21L870.223 395.227L915.467 382.245L928.45 337Z" fill="white"/>
</svg>
