<svg width="1800" height="1800" viewBox="0 0 1800 1800" fill="none" xmlns="http://www.w3.org/2000/svg">
<rect width="1800" height="1800" fill="black"/>
<path d="M204.432 987.394C193.928 1001.03 180.061 1006.84 167.101 1006.84C153.014 1006.84 144.967 997.008 144.967 984.938C144.967 969.961 153.912 958.331 203.313 942.685L203.534 926.142C204.203 902.669 197.723 893.944 187.439 893.944C174.919 893.944 172.463 904.008 169.329 915.629C165.974 927.929 160.163 930.835 155.691 930.835C151.218 930.835 147.414 926.362 147.414 920.102C147.414 905.575 166.863 890.59 190.565 890.59C212.919 890.59 224.321 898.417 223.652 923.008C223.432 934.858 222.982 949.165 223.203 964.811C223.423 992.536 224.99 995.882 230.801 995.882C233.486 995.882 235.943 994.543 237.061 992.756L239.517 993.874C235.943 1001.92 231.241 1005.72 222.305 1005.72C213.368 1005.72 207.099 1001.25 204.423 987.394H204.432ZM181.628 995.441C189.455 995.441 198.172 991.197 203.983 983.37C203.313 979.118 203.085 974.425 203.085 968.843L203.305 946.26C174.911 955.205 166.414 964.371 166.414 978.009C166.414 988.741 171.776 995.45 181.619 995.45L181.628 995.441Z" fill="white"/>
<path d="M251.604 969.962V896.63H240.871V894.394C252.493 886.347 262.776 875.614 269.265 863.992L271.722 864.661V893.055C278.88 893.055 294.525 892.606 301.234 892.606V897.528C296.092 897.528 279.549 896.63 271.722 896.63V962.355C271.722 988.064 278.431 995.222 289.832 995.222C295.194 995.222 300.116 992.536 302.132 990.529L304.148 992.545C299.676 1000.59 290.51 1006.85 279.329 1006.85C263.454 1006.85 251.604 998.805 251.604 969.962Z" fill="white"/>
<path d="M305.478 948.716C305.478 910.268 326.265 890.59 355.557 890.59C380.817 890.59 397.36 908.472 397.36 932.393L396.462 933.731H327.603C327.383 936.637 327.383 939.542 327.383 942.677C327.383 975.543 342.359 994.992 366.061 994.992C378.58 994.992 389.762 987.843 395.793 979.567L398.249 981.354C389.304 998.118 375.446 1006.84 356.217 1006.84C327.823 1006.84 305.469 983.141 305.469 948.716H305.478ZM376.573 929.937C376.353 906.015 367.188 893.944 353.77 893.944C338.344 893.944 330.068 906.244 327.841 929.937H376.573Z" fill="white"/>
<path d="M416.59 989.853V855.718C416.59 847.89 412.118 843.867 401.834 843.418V840.733L434.252 830L436.708 831.567V989.853C436.708 995.663 442.299 1000.81 452.133 1001.92V1004.61H401.834V1001.92C411.448 1000.59 416.59 995.443 416.59 989.853Z" fill="white"/>
<path d="M470.463 989.852V919.426C470.463 913.835 467.109 908.473 455.707 907.804V905.119L488.125 890.143L490.581 891.71V989.852C490.581 995.663 496.172 1000.81 506.007 1001.92V1004.61H455.707V1001.92C465.321 1000.58 470.463 995.443 470.463 989.852ZM479.188 846.332C486.337 846.332 492.157 852.143 492.157 859.301C492.157 866.459 486.346 872.27 479.188 872.27C472.03 872.27 466.219 866.459 466.219 859.301C466.219 852.143 472.259 846.332 479.188 846.332Z" fill="white"/>
<path d="M511.817 948.716C511.817 910.268 532.605 890.59 561.897 890.59C587.157 890.59 603.7 908.472 603.7 932.393L602.802 933.731H533.943C533.723 936.637 533.723 939.542 533.723 942.677C533.723 975.543 548.699 994.992 572.4 994.992C584.92 994.992 596.102 987.843 602.133 979.567L604.589 981.354C595.644 998.118 581.786 1006.84 562.557 1006.84C534.163 1006.84 511.809 983.141 511.809 948.716H511.817ZM582.913 929.937C582.693 906.015 573.527 893.944 560.109 893.944C544.684 893.944 536.408 906.244 534.172 929.937H582.904H582.913Z" fill="white"/>
<path d="M622.928 989.85V920.542C622.928 910.479 618.235 904.448 608.172 904.448V901.762L640.141 890.141L642.597 891.708V915.849C652.881 902.211 666.519 890.59 677.7 890.59C686.196 890.59 693.125 895.282 693.125 903.559C693.125 909.598 688.653 913.842 682.173 913.842C674.795 913.842 672.558 908.251 662.055 908.251C655.795 908.251 648.866 913.173 643.055 920.322V989.85C643.055 995.661 648.646 1000.8 662.953 1001.92V1004.61H608.181V1001.92C617.795 1000.58 622.937 995.441 622.937 989.85H622.928Z" fill="white"/>
<path d="M1179.87 901.994C1171.15 901.994 1161.09 908.034 1157.51 918.318C1157.73 922.341 1157.96 927.263 1157.96 931.956V989.862C1157.96 995.673 1163.55 1000.81 1173.39 1001.93V1004.62H1123.09V1001.93C1132.7 1000.59 1137.84 995.453 1137.84 989.862V939.563C1137.84 908.932 1130.47 902.003 1117.28 902.003C1108.78 902.003 1099.4 907.594 1095.37 916.979V989.862C1095.37 995.673 1100.96 1000.81 1110.8 1001.93V1004.62H1060.5V1001.93C1070.11 1000.59 1075.25 995.453 1075.25 989.862V920.554C1075.25 910.49 1070.56 904.459 1060.5 904.459V901.774L1092.47 890.152L1094.92 891.719V911.168L1095.14 911.617C1102.07 898.199 1115.71 890.601 1126.22 890.601C1141.2 890.601 1152.15 897.081 1156.18 914.743C1162.66 899.318 1177.65 890.601 1188.82 890.601C1208.05 890.601 1220.57 901.105 1220.57 931.964V989.871C1220.57 995.682 1226.16 1000.82 1236 1001.94V1004.63H1185.7V1001.94C1195.31 1000.6 1200.45 995.462 1200.45 989.871V939.571C1200.45 908.941 1193.07 902.012 1179.89 902.012L1179.87 901.994Z" fill="white"/>
<path d="M1299.02 987.394C1288.51 1001.03 1274.65 1006.84 1261.69 1006.84C1247.6 1006.84 1239.55 997.008 1239.55 984.938C1239.55 969.961 1248.5 958.331 1297.9 942.685L1298.12 926.142C1298.79 902.669 1292.31 893.944 1282.03 893.944C1269.51 893.944 1267.05 904.008 1263.91 915.629C1260.56 927.929 1254.75 930.835 1250.28 930.835C1245.8 930.835 1242 926.362 1242 920.102C1242 905.575 1261.45 890.59 1285.15 890.59C1307.51 890.59 1318.91 898.417 1318.24 923.008C1318.02 934.858 1317.57 949.165 1317.79 964.811C1318.01 992.536 1319.58 995.882 1325.39 995.882C1328.07 995.882 1330.53 994.543 1331.65 992.756L1334.1 993.874C1330.53 1001.92 1325.83 1005.72 1316.89 1005.72C1307.95 1005.72 1301.69 1001.25 1299.01 987.394H1299.02ZM1276.22 995.441C1284.05 995.441 1292.77 991.197 1298.58 983.37C1297.91 979.118 1297.68 974.425 1297.68 968.843L1297.9 946.26C1269.51 955.205 1261.01 964.371 1261.01 978.009C1261.01 988.741 1266.37 995.45 1276.21 995.45L1276.22 995.441Z" fill="white"/>
<path d="M1324.29 1039.93C1324.29 1033.67 1328.09 1029.2 1334.12 1029.2C1342.62 1029.2 1346.42 1038.36 1354.02 1038.36C1361.17 1038.36 1370.34 1024.51 1379.95 1002.15L1340.15 906.695C1337.25 899.766 1332.11 896.632 1325.18 895.514V892.828H1377.26V895.514C1365.86 897.301 1361.62 901.324 1364.52 909.151L1390.68 978.231C1399.85 955.427 1409.01 936.427 1416.17 912.506C1418.63 904.01 1415.5 897.979 1403.65 895.514V892.828H1442.55V895.285C1434.5 896.852 1428.24 901.765 1422.43 914.733C1412.37 937.317 1401.64 961.907 1391.35 986.718C1374.14 1028.08 1359.38 1053.56 1339.93 1053.56C1331.22 1053.56 1324.29 1047.52 1324.29 1039.92V1039.93Z" fill="white"/>
<path d="M1502.46 901.991C1492.85 901.991 1481.67 908.031 1477.64 916.968V989.85C1477.64 995.661 1483.23 1000.8 1493.07 1001.92V1004.61H1442.77V1001.92C1452.38 1000.58 1457.52 995.441 1457.52 989.85V920.542C1457.52 910.479 1452.83 904.448 1442.77 904.448V901.762L1474.74 890.141L1477.19 891.708V911.826C1483.9 899.086 1497.54 890.59 1511.4 890.59C1532.18 890.59 1546.72 901.093 1546.5 931.953L1546.05 990.748C1546.72 996.11 1552.09 1000.81 1561.48 1001.93V1004.62H1511.18V1001.93C1520.79 1000.59 1525.93 995.45 1525.93 989.859L1526.38 937.323C1526.6 908.929 1517.22 902 1502.46 902V901.991Z" fill="white"/>
<path d="M1562.83 948.716C1562.83 910.268 1583.61 890.59 1612.9 890.59C1638.16 890.59 1654.71 908.472 1654.71 932.393L1653.81 933.731H1584.95C1584.73 936.637 1584.73 939.542 1584.73 942.677C1584.73 975.543 1599.71 994.992 1623.41 994.992C1635.93 994.992 1647.11 987.843 1653.14 979.567L1655.6 981.354C1646.65 998.118 1632.79 1006.84 1613.56 1006.84C1585.17 1006.84 1562.82 983.141 1562.82 948.716H1562.83ZM1633.91 929.937C1633.69 906.015 1624.52 893.944 1611.11 893.944C1595.68 893.944 1587.41 906.244 1585.18 929.937H1633.91Z" fill="white"/>
<path d="M994.094 919.406C992.495 919.095 988.618 921.006 988.307 920.961C988.263 921.839 988.24 922.727 988.24 923.627C988.24 924.927 988.34 926.315 988.529 927.748L990.34 925.371C991.328 924.071 994.538 920.295 994.738 919.884C994.827 919.717 994.261 919.462 994.072 919.417H994.094V919.406ZM991.972 937.911L990.895 938.022C991.173 938.9 991.45 939.766 991.75 940.599C992.483 940.055 993.05 939.5 993.294 938.966C993.472 938.567 992.461 937.867 991.983 937.911H991.972ZM994.094 919.406C992.495 919.095 988.618 921.006 988.307 920.961C988.263 921.839 988.24 922.727 988.24 923.627C988.24 924.927 988.34 926.315 988.529 927.748L990.34 925.371C991.328 924.071 994.538 920.295 994.738 919.884C994.827 919.717 994.261 919.462 994.072 919.417H994.094V919.406ZM991.972 937.911L990.895 938.022C991.173 938.9 991.45 939.766 991.75 940.599C992.483 940.055 993.05 939.5 993.294 938.966C993.472 938.567 992.461 937.867 991.983 937.911H991.972ZM783.476 766.213C779.888 766.28 776.978 761.826 774.235 766.735C773.368 768.29 773.235 770.001 773.035 771.867L769.658 776.11C766.615 779.931 763.727 786.706 762.972 791.505C762.294 795.77 761.306 799.935 760.928 804.234C760.595 808.122 760.173 811.587 759.184 815.375C756.696 824.883 755.752 834.535 756.94 844.343C758.184 854.617 761.083 864.347 765.56 873.655L773.357 889.816C776.445 896.225 779.033 902.59 780.999 909.376C779.111 913.386 777.011 916.752 774.568 920.251L763.482 936.212C753.641 950.385 748.754 967.29 749.01 984.629C749.065 988.35 749.609 991.849 751.22 995.114C751.909 996.525 754.241 997.036 755.663 996.658C759.784 995.559 763.527 993.87 767.081 991.66C775.601 986.351 775.401 977.031 775.901 968.545C776.134 964.547 782.232 958.849 785.42 956.483L805.024 941.921C806.102 943.965 806.946 945.553 808.001 947.33C812.477 954.817 815.609 962.77 817.942 971.211C819.397 976.465 820.541 981.541 820.919 986.995C815.276 989.294 809.067 992.804 806.846 998.78C806.779 1000.06 806.868 1001.83 807.834 1002.83C808.734 1003.76 810.378 1004.26 811.733 1004.52C819.63 1006.14 827.805 1006 835.525 1003.96C838.313 1003.21 839.757 1001.3 840.012 998.613C840.368 994.903 840.712 991.393 840.801 987.65C841.09 976.543 840.223 965.724 838.224 954.728C836.014 942.665 833.126 931.014 829.671 919.306L839.957 920.528C844.056 920.595 847.799 919.795 851.264 917.618C852.397 916.907 853.786 916.53 855.185 916.474C864.115 916.141 874.456 914.353 882.376 909.876C879.943 921.495 878.655 932.657 878.566 944.22L878.433 963.503C878.377 970.922 876.156 977.742 871.468 983.485C866.026 987.006 856.818 992.015 853.708 997.658C852.553 999.746 851.942 1002.38 852.986 1004.62C853.63 1005.99 855.463 1006.87 856.918 1007.14C861.339 1007.98 865.648 1008.52 870.08 1008.77C874.045 1008.99 877.244 1007.63 880.321 1005.39C893.695 995.647 899.148 985.251 904.691 970.123L909.456 957.138C912.633 948.485 916.476 940.155 922.163 932.913L926.417 927.504C930.149 931.858 933.925 935.923 938.202 939.844L958.262 958.271C959.761 959.66 961.472 960.47 963.338 961.337C954.352 965.302 942.434 967.39 936.347 957.76C934.114 954.239 932.148 950.651 930.227 946.897C929.593 945.664 928.86 944.731 927.25 944.709C922.862 944.665 919.264 947.364 917.464 951.218C917.031 952.129 916.331 953.073 916.531 954.206C918.464 964.724 921.974 972.4 931.671 977.753C942.922 983.962 957.939 982.963 969.624 977.187C969.425 980.019 970.213 984.273 967.381 985.495L961.216 988.161C957.029 989.972 954.23 993.515 952.908 997.858C952.419 999.479 951.875 1001.32 952.364 1002.99C952.963 1005.06 955.229 1006.11 957.417 1006.12C964.049 1006.17 970.568 1005.19 977.011 1003.73C979.31 1003.21 981.165 1002.21 982.331 1000.16C983.52 998.058 984.608 995.97 985.397 993.559C988.729 983.418 990.529 972.744 989.94 962.081C989.851 960.526 989.707 960.093 990.673 958.86C991.828 957.383 992.861 955.816 993.805 954.206C995.105 952.007 996.249 949.707 997.326 947.364C997.582 946.83 997.815 946.286 998.059 945.753C999.448 942.643 1000.61 939.466 1001.45 936.201C1002.19 933.313 1002.69 930.358 1002.89 927.326C1002.95 926.548 1002.99 925.782 1002.99 925.004C1003.01 924.005 1002.99 922.994 1002.96 922.005C1002.76 916.741 1001.79 911.598 1000.21 906.633C999.426 904.156 998.47 901.723 997.371 899.335C996.915 898.358 996.471 897.38 996.016 896.425C995.327 894.981 994.605 893.56 993.816 892.204C992.839 890.483 991.75 888.839 990.451 887.262C982.898 878.02 974.423 869.779 965.026 862.426C954.208 853.951 941.978 848.13 928.583 845.12C920.274 843.243 912.199 842.31 903.691 842.255C896.06 842.199 888.896 843.021 881.332 843.876L859.595 846.364C854.23 846.975 849.098 847.153 843.733 847.064C830.804 846.842 819.397 842.554 811.633 831.98C809.778 829.448 808.301 827.171 806.424 824.249C809.145 823.116 814.043 822.583 816.743 823.116C821.73 824.083 828.305 825.482 832.515 821.561C833.948 820.217 834.581 817.974 834.67 816.052L834.836 812.331C835.492 811.454 837.036 810.476 837.335 809.377C838.302 805.867 838.102 802.112 836.725 798.747C835.869 796.636 834.181 794.859 832.471 793.426L825.54 787.628C820.419 783.352 819.342 777.432 816.02 775.433C810.989 772.4 806.412 769.979 801.203 767.257C799.07 766.147 795.949 765.68 793.617 765.747M961.494 885.573C960.938 884.518 960.505 883.463 960.194 882.563L966.337 887.206C970.524 890.383 974.056 893.937 976.822 898.48C980.765 905 983.675 912.042 984.453 919.706C984.542 920.473 984.597 921.239 984.642 922.005C984.753 923.783 984.786 925.549 984.708 927.315C984.486 932.724 983.342 938.1 980.987 943.421C974.845 937.511 970.713 932.946 968.258 924.705C964.004 910.332 968.158 898.325 961.505 885.562H961.494V885.573ZM999.503 923.461L996.96 925.404C995.616 926.426 990.106 930.88 991.273 932.691C991.528 933.08 992.561 933.213 993.028 932.957C993.65 932.613 999.348 929.203 998.792 931.613C998.215 934.113 996.282 941.532 995.227 943.498L993.883 946.031L993.228 947.253C992.261 947.275 991.295 947.353 990.328 947.497C988.885 947.719 987.452 948.108 986.13 948.719C985.741 948.896 986.23 950.029 986.585 950.14C988.018 950.551 989.229 951.562 989.873 953.04C988.007 956.083 985.908 958.649 983.509 961.403L977.81 959.226C977.288 959.026 976.245 960.026 976.389 960.581C976.922 962.492 977.811 963.947 979.144 965.602C975.9 968.579 972.09 971.189 968.081 973.199C967.103 971.922 963.66 968.979 962.56 969.312C961.771 969.545 962.027 974.443 960.25 976.221C956.562 977.442 952.797 977.82 949.031 977.853C948.409 975.998 946.41 972.389 945.388 971.211C945.233 971.022 944.4 971.489 944.311 971.778L942.545 977.409C937.269 976.554 932.437 974.432 928.427 971.022C929.393 970.189 932.792 967.59 931.926 966.502C931.215 965.591 926.328 966.913 924.873 967.113C922.674 963.703 921.007 959.693 920.93 955.65C920.863 952.306 923.051 949.652 926.017 948.663L926.695 948.441C926.85 948.386 926.65 949.096 926.594 949.274C924.862 955.883 924.529 954.517 924.74 962.181C924.773 963.069 925.906 963.414 926.417 962.692L930.904 956.361C930.971 956.261 931.193 955.916 931.193 955.894C931.215 955.894 931.415 956.127 931.459 956.216L933.214 959.282C933.959 960.581 932.392 966.635 937.913 971.211C939.701 971.667 939.013 966.246 939.09 965.458L945.644 967.735C946.41 968.656 947.421 969.945 948.543 970.467L955.574 973.766C956.462 972.833 954.663 969.734 954.374 969.312L953.474 968.057L953.208 967.701C953.052 967.479 959.961 966.28 961.139 965.769L963.96 966.157L971.424 967.168C971.879 967.224 972.657 967.09 972.934 966.824C974.478 965.302 970.657 962.881 969.402 962.003C972.024 960.282 974.39 958.482 976.578 956.305L979.099 955.961C982.454 955.505 984.386 956.538 984.953 955.55C985.108 955.294 984.864 954.472 984.597 954.25L981.365 951.562C980.954 951.218 981.076 950.774 981.398 950.218L984.053 945.487C985.041 944.598 986.663 943.687 988.263 942.765C989.518 942.043 990.762 941.332 991.717 940.61C992.45 940.066 993.017 939.5 993.261 938.978C993.439 938.578 992.428 937.867 991.95 937.922L990.873 938.033L986.841 938.444C986.808 938.378 986.73 938.244 986.686 938.178V938.156H986.674C987.485 934.779 987.907 931.591 988.24 928.115L988.518 927.748L990.328 925.36C991.317 924.06 994.527 920.284 994.727 919.873C994.816 919.706 994.25 919.451 994.061 919.406C992.461 919.095 988.585 921.006 988.285 920.961H988.263C988.229 920.795 988.107 920.328 988.074 920.095L987.141 913.786C986.93 912.82 986.608 911.72 986.23 910.576C984.519 905.478 981.576 899.38 981.576 899.38C982.276 897.747 982.964 895.859 983.187 893.97L983.453 891.816C983.475 891.693 983.331 891.216 983.298 891.094C983.264 890.96 982.931 891.327 982.82 891.494C981.82 893.004 980.476 894.293 979.088 895.381C977.111 892.626 975.267 890.227 972.901 888.017C972.112 887.273 972.146 886.928 972.112 885.818C972.079 884.018 971.757 882.163 971.557 880.297L971.457 879.42C971.435 879.242 970.913 879.62 970.813 879.786L968.691 883.485C968.591 883.652 968.447 883.996 968.347 883.963C968.192 883.907 967.758 883.718 967.625 883.607C963.615 880.331 959.261 877.332 956.173 873.055C954.585 870.867 954.207 867.979 953.163 865.48L951.597 861.704C951.153 860.659 948.72 862.103 948.143 864.958C947.199 869.656 946.832 874.399 946.288 879.142C945.077 879.031 944.122 879.62 943.911 880.853L942.545 888.45L941.112 886.773C940.79 886.395 939.812 886.051 939.257 886.195C938.668 886.351 938.157 887.295 938.157 888.05V892.36C938.168 892.56 937.935 893.215 937.879 893.393C937.813 893.559 937.435 893.071 937.224 892.915C936.525 892.471 935.591 892.016 934.869 892.049C934.014 892.082 933.248 893.093 933.17 894.004C932.959 896.792 932.526 899.369 931.982 901.957L930.082 900.146C929.882 899.957 928.971 900.557 928.994 900.835L929.171 904.178C929.382 908.11 928.971 912.053 927.439 915.719L926.606 912.598C926.506 912.209 925.084 912.198 924.928 912.564C924.584 913.475 924.184 914.897 924.006 915.908C923.284 919.984 921.896 923.572 920.219 927.426L918.986 930.281C917.042 929.658 915.287 930.28 913.355 930.691C909.467 931.513 906.135 932.924 902.836 935.057L900.348 936.667C901.314 937.145 902.125 937.178 903.258 937.067L909.656 936.423C910.078 936.678 910.822 937.1 911.222 937.156C911.622 937.212 912.088 936.356 912.388 935.823C913.032 935.423 914.565 935.512 915.398 935.745L911.044 942.81C907.612 943.676 905.324 945.231 902.38 947.575L908.711 947.408L905.224 955.683C903.802 955.616 902.081 955.539 900.581 955.861C896.849 956.661 893.439 956.649 889.307 956.972C894.039 959.537 898.426 958.993 903.524 960.481L898.248 975.188C894.983 974.355 891.673 973.777 888.152 974.221C889.951 975.465 891.917 975.276 893.006 976.854C893.861 978.109 894.716 979.231 895.883 980.319C893.106 986.273 889.34 991.593 884.508 996.225L883.598 991.949L882.132 985.884C882.043 985.518 881.465 984.895 881.099 984.884C880.732 984.884 880.188 985.584 880.143 985.973C879.399 992.026 878.2 995.459 879.01 1001.62C877.677 1002.7 876.289 1004.48 874.656 1004.96C871.213 1005.98 867.792 1005.08 864.138 1004.81C865.693 1002.19 867.425 1000.23 869.403 997.958C869.758 997.547 869.814 996.336 869.503 995.947C869.181 995.559 868.025 995.447 867.548 995.792C864.093 998.28 861.039 1000.75 857.962 1003.64L855.218 1003.27C855.574 997.813 861.938 993.915 865.959 990.86L865.326 993.015C864.371 996.258 869.547 992.671 871.257 990.827C877.333 984.262 881.676 976.598 882.454 967.579C884.375 965.591 887.108 964.991 889.873 964.247C887.508 963.158 885.264 962.936 882.698 962.77V947.952C887.197 947.197 890.929 948.552 894.205 946.664L897.026 945.042C895.027 945.098 893.739 945.253 892.106 944.987C886.608 944.065 887.641 942.787 882.876 942.043L883.076 936.989C885.231 936.478 887.308 935.779 889.129 934.424C891.806 932.446 894.605 932.002 898.193 931.225C893.572 928.87 888.563 929.27 883.675 930.069L884.697 921.306C889.04 920.917 893.172 920.739 897.426 920.006C900.57 919.462 903.325 919.229 906.657 919.64C900.459 915.952 895.76 918.185 888.84 916.518L885.63 915.752C886.885 909.221 887.83 903.656 888.552 900.857C889.64 904.567 891.928 905.422 895.249 906.744C895.249 906.744 901.292 908.577 903.847 910.121C907.512 912.353 913.354 915.919 916.042 915.374C915.498 912.309 907.801 906.011 899.459 900.724C895.749 898.369 892.173 891.26 892.173 891.26C894.45 884.885 897.538 876.399 900.203 870.312C900.859 868.812 903.036 864.325 902.447 863.292C902.336 863.092 901.492 863.292 901.292 863.481C895.572 868.846 889.851 884.285 887.174 892.071L884.442 894.981C883.531 895.948 881.754 895.859 880.332 895.892C879.755 895.903 878.944 896.803 878.477 897.236L878.2 897.503C878.144 897.558 877.8 897.092 877.766 896.914C877.122 893.859 876.289 889.716 875.178 886.44C873.568 881.708 871.746 877.065 869.902 872.533C869.802 872.311 869.225 871.989 869.003 871.945C868.725 871.9 868.203 872.555 868.214 872.911L868.581 881.53C868.858 887.873 869.103 894.048 868.803 900.413C868.003 900.057 867.148 899.68 866.503 899.613C865.171 899.458 863.838 902.223 862.849 901.901C861.683 900.835 860.228 900.346 858.784 901.457L853.675 883.085C853.675 883.085 851.797 887.406 851.842 892.538C851.864 894.659 852.031 899.513 851.653 902.434H847.11C841.523 902.268 838.791 908.166 835.192 905.433C833.692 904.3 831.76 903.756 829.86 903.234C828.927 902.967 827.55 901.368 827.417 900.402C827.028 897.58 826.983 894.892 824.929 892.404L822.452 901.657C821.607 904.845 821.53 908.055 821.907 911.331C821.197 911.254 820.297 911.154 819.841 911.265C819.319 911.409 818.931 912.631 818.931 913.164V915.785C817.487 915.497 816.276 914.597 815.31 915.619C814.51 916.474 814.654 918.173 814.51 919.384L814.399 920.273C814.377 920.439 813.699 919.828 813.721 919.54C813.965 915.73 814.466 909.654 815.31 905.4C815.954 902.134 816.876 899.557 817.131 896.159C815.154 898.813 814.632 901.646 813.566 904.467C811.722 909.365 810.389 914.241 809.567 919.44C808.656 925.204 807.923 931.913 804.291 936.578C798.404 930.936 791.562 932.224 784.198 933.146C783.776 933.202 783.098 933.779 783.109 934.124C783.132 934.468 783.642 935.146 784.053 935.257L790.773 937.223C794.028 938.167 796.905 939.5 799.892 941.188C799.604 941.577 799.237 942.054 798.904 942.31L783.032 954.539C778.689 953.573 774.29 953.717 769.869 954.95C769.425 955.072 768.792 955.827 768.758 956.25C768.703 956.727 769.369 957.582 769.869 957.816L776.045 960.692L773.835 963.936C769.192 964.469 773.824 970.856 770.825 980.464C769.414 984.962 766.726 986.973 762.616 989.483C760.217 985.673 761.017 979.664 759.751 975.31C757.385 979.342 756.029 984.251 757.351 987.972L758.651 991.615L753.997 993.404C750.687 985.551 751.72 980.73 752.553 972.7C756.441 971.222 757.829 967.646 761.272 965.591C763.383 964.336 765.315 963.147 767.137 961.403C766.859 961.048 766.093 960.615 765.804 960.692L758.218 962.492C756.918 962.803 755.718 963.425 754.308 964.047C755.674 958.06 757.907 952.351 760.739 946.808C769.925 945.764 777.133 949.274 785.953 945.52C786.441 945.309 786.997 944.52 786.886 944.109C786.764 943.709 785.875 943.232 785.364 943.209C774.846 942.687 774.812 940.466 765.26 938.844L775.467 923.905C780.932 921.35 785.209 921.55 790.918 920.106C797.438 918.44 800.426 911.909 799.148 910.887C797.649 909.676 794.106 913.197 789.118 913.886L781.91 914.875L781.665 914.53C788.263 904.6 788.952 890.038 789.54 878.353C790.051 868.357 790.818 860.137 795.305 851.085C797.26 847.142 799.981 844.132 803.269 840.977C801.303 840.788 800.448 842.332 799.16 843.199C795.661 845.553 793.062 848.741 791.118 852.54C785.942 862.67 785.942 873.133 785.42 884.329C785.353 884.463 785.253 884.618 785.186 884.74C784.775 883.63 783.376 879.331 782.076 880.508L780.899 881.586L780.366 881.663C779.622 879.475 777.356 880.864 777.567 879.542C777.789 878.165 777.133 874.155 777.644 870.19C778.522 863.27 782.298 859.238 785.82 853.573C786.131 853.073 785.531 852.496 785.042 852.84C781.743 855.206 776.3 859.171 775.19 860.837C770.936 867.157 771.247 872.178 771.102 874.633C770.091 874.544 766.97 866.402 766.97 866.402C768.026 865.325 771.513 857.983 772.18 856.683C773.912 853.251 777.011 848.675 778.8 846.12C779.188 845.576 778.6 844.854 777.978 845.142C776.112 846.009 773.401 847.431 771.235 849.174C764.549 854.561 763.882 856.938 763.882 856.938C763.516 855.772 763.194 854.606 762.894 853.429C762.616 852.273 762.361 851.118 762.127 849.952C761.983 849.252 761.361 847.642 761.827 847.064C762.083 846.742 762.827 846.486 763.183 846.264C763.594 845.998 764.005 845.731 764.416 845.442C765.26 844.843 766.071 844.221 766.859 843.565C770.025 840.977 772.913 838.045 776.289 835.723C777.544 834.868 778.877 834.091 779.91 832.969C780.321 832.524 780.699 831.936 780.532 831.369C779.366 831.325 778.233 831.569 777.1 831.814C774.668 832.347 772.213 832.869 769.98 833.957C769.103 834.379 768.27 834.879 767.437 835.379C765.982 836.257 764.527 837.134 763.072 838C762.705 838.223 761.317 839.355 760.928 839.233C760.517 839.111 760.683 837.501 760.672 837.145C760.661 836.323 760.961 827.215 761.183 827.26C765.526 827.993 768.048 828.681 771.402 826.382L773.446 824.971C773.446 824.971 773.068 824.771 772.935 824.694C771.313 824.771 769.891 824.627 768.436 824.161L761.894 822.028C762.927 817.152 763.816 812.92 764.249 808.233L765.482 794.859C766.326 785.729 768.403 783.03 773.723 775.577L774.157 776.077C775.201 779.076 777.122 781.697 780.255 782.519C780.643 782.619 781.232 782.619 781.477 782.441C781.754 782.241 781.332 781.364 781.032 781.108C777.156 777.876 774.501 772.478 777.167 767.435L784.586 771.067C785.497 771.512 786.73 771.623 787.708 771.545C787.73 769.823 786.453 769.301 785.209 768.446C785.053 768.513 785.675 768.179 785.753 768.179L792.739 768.324C795.172 768.379 797.149 768.646 799.426 769.19L801.236 769.634C798.548 771.167 795.55 772.656 794.117 775.766C797.804 774.488 800.292 772.023 804.047 771.656C805.035 771.556 806.401 772.711 807.357 773.122L807.779 773.555C805.091 774.577 803.158 775.477 801.025 777.121C805.857 776.865 807.745 775.321 812.933 776.077C814.277 776.277 816.62 778.987 817.076 779.753L818.975 782.952C820.219 785.063 821.541 787.151 823.418 788.784L831.704 796.037C832.97 797.147 834.17 798.691 834.325 800.424C833.048 801.402 830.682 802.279 829.072 801.657C827.772 801.168 824.673 798.825 824.407 799.68L824.251 800.213C825.073 800.957 825.984 801.713 827.028 802.29L834.959 806.722C834.57 808.71 833.204 810.154 831.715 811.454C828.205 814.53 823.596 816.019 818.953 814.675L815.732 812.653C815.398 812.442 814.254 812.487 814.121 812.82C813.999 813.164 814.121 814.008 814.365 814.297C818.775 819.329 827.028 817.418 832.182 814.453C832.604 817.529 830.505 820.084 827.572 820.939C822.53 822.417 816.676 818.496 812.999 819.118L806.168 820.251C799.948 821.284 793.817 819.473 788.507 816.241C785.475 814.408 783.265 811.987 781.365 809.01C778.9 805.123 778.033 800.824 777.089 796.192C775.323 801.124 776.556 805.967 778.389 810.465C781.232 817.441 789.707 822.861 797.127 823.661L801.37 827.604C801.248 827.493 798.737 828.393 798.393 828.47C797.438 828.692 796.46 828.859 795.505 829.048C793.728 829.392 791.884 829.725 790.363 830.725C788.652 831.836 787.797 832.869 787.797 832.869C787.452 833.269 787.108 833.702 786.763 834.202L782.876 840.744L782.62 841.366C785.575 837.845 789.185 835.712 793.439 834.313C800.648 831.947 801.503 834.091 807.279 831.902C809.167 834.635 811.122 837.067 813.555 839.411C813.899 839.755 812.644 843.287 812.488 843.821C812.088 845.231 811.633 846.631 811.156 848.008C810.245 850.696 809.234 853.206 808.467 855.972C806.768 862.203 805.313 868.557 805.113 875.044C807.745 869.856 810.378 864.68 813.01 859.504C814.299 856.972 815.698 854.628 817.242 852.273C817.642 851.674 820.875 844.931 820.352 844.665L826.339 847.686C827.095 848.064 827.639 850.818 827.85 851.585C828.217 852.962 828.427 854.273 828.416 855.694V885.462C828.416 885.584 828.416 885.718 828.494 885.818C828.694 886.095 829.116 885.862 829.349 885.618C831.06 883.829 832.059 881.464 832.615 879.053C833.181 876.643 833.348 874.155 833.581 871.689C833.948 867.801 834.537 863.936 835.303 860.104C835.703 858.16 836.147 856.216 836.647 854.295C836.836 853.562 837.002 853.018 837.436 852.407C837.591 852.185 838.591 850.685 838.702 850.685C840.934 850.929 843.167 850.741 845.177 851.263C847.154 851.774 847.654 852.695 848.554 854.462C849.098 855.539 849.609 856.639 850.054 857.749C852.686 864.48 854.585 871.5 855.729 878.631C856.085 880.864 856.362 883.119 856.885 885.318C856.951 885.607 857.107 885.984 857.418 885.962C857.551 885.962 857.662 885.862 857.762 885.784C858.606 885.029 858.862 883.796 859.028 882.674C859.228 881.308 859.328 879.931 859.373 878.542C859.617 870.823 859.917 863.081 859.506 855.361C859.462 854.484 859.406 853.617 859.339 852.74C859.306 852.351 858.928 850.896 859.195 850.574C859.484 850.219 860.772 850.285 861.205 850.23C863.349 849.752 866.104 849.163 868.158 850.074C870.435 851.074 873.79 852.818 875.012 854.917C879.81 863.003 883.265 881.486 883.665 881.286C883.92 881.164 884.942 876.176 885.397 873.4C886.43 867.057 886.752 861.048 885.453 854.75C885.097 853.04 884.586 849.874 884.975 848.141C885.319 846.653 886.53 846.842 887.918 846.697C889.562 846.52 891.595 845.509 893.228 845.809C895.138 846.153 896.827 849.452 897.96 851.052C901.092 855.461 903.746 860.293 905.068 865.558C906.357 870.678 908.389 881.03 908.389 881.03C908.389 881.03 911.166 865.536 909.967 860.782L905.979 845.82C916.22 846.42 917.786 845.553 923.251 855.894C925.917 860.948 927.183 866.213 927.972 871.833C928.605 876.254 927.55 878.876 928.516 880.053C928.727 880.308 929.738 879.931 929.793 879.542C929.971 878.353 930.138 876.643 930.149 875.266L930.182 869.079C930.204 864.98 929.816 860.893 929.138 856.85C928.705 854.284 928.571 852.062 929.216 849.385C930.615 849.619 931.704 849.907 932.981 850.318C937.557 858.527 941.201 872.011 941.412 881.008C941.412 881.264 941.545 881.786 941.589 881.875C941.634 881.975 941.789 882.019 941.845 881.93C943.056 880.242 943.733 871.089 943.911 868.49C943.944 867.924 944.477 866.846 944.389 866.291L943.144 858.416C943.067 857.96 942.367 853.573 943.022 853.795C947.021 855.161 955.296 859.715 959.106 862.403C958.184 866.324 962.527 872.089 964.893 875.21C965.415 875.899 965.815 876.665 966.792 876.51C965.559 873.111 964.648 870.101 963.782 866.502L964.337 866.047C969.036 869.734 973.29 873.444 977.466 877.643C975.545 882.53 978.266 882.908 978.666 888.506C978.888 891.727 980.299 880.02 980.61 880.953L985.719 886.395C987.341 888.128 988.718 889.95 990.317 892.071C989.007 893.182 987.985 894.17 987.741 895.959L987.119 900.479C987.096 900.613 987.085 900.879 987.085 900.99C987.085 901.101 987.585 900.835 987.674 900.679C988.574 899.191 990.106 897.569 991.695 896.181C991.95 895.959 992.206 895.737 992.461 895.525C993.139 896.514 993.727 897.569 994.261 898.658C995.216 900.602 995.993 902.69 996.682 904.811C997.004 905.8 997.304 906.799 997.593 907.788C997.559 907.821 997.515 907.866 997.482 907.888C994.794 910.387 995.183 910.909 992.795 913.764C992.55 914.053 992.295 914.475 992.383 914.73C992.495 915.03 993.428 915.419 993.75 915.33L998.282 914.086L998.77 913.942C999.27 913.797 999.681 922.261 999.503 923.405V923.461ZM991.972 937.911L990.895 938.022C991.173 938.9 991.45 939.766 991.75 940.599C992.483 940.055 993.05 939.5 993.294 938.966C993.472 938.567 992.461 937.867 991.983 937.911H991.972ZM994.094 919.406C992.495 919.095 988.618 921.006 988.307 920.961C988.263 921.839 988.24 922.727 988.24 923.627C988.24 924.927 988.34 926.315 988.529 927.748L990.34 925.371C991.328 924.071 994.538 920.295 994.738 919.884C994.827 919.717 994.261 919.462 994.072 919.417H994.094V919.406Z" fill="white"/>
<path d="M844.846 884.309C843.958 888.785 844.413 896.971 843.413 897.96C843.191 898.182 842.347 897.749 842.214 897.427C839.193 889.852 836.982 884.142 839.059 875.823C840.115 871.569 840.514 867.459 840.259 863.061C840.192 861.861 840.226 860.784 840.681 859.406L843.513 865.204C844.013 866.237 844.291 867.77 844.669 868.914C846.346 874.001 845.868 879.133 844.835 884.309H844.846Z" fill="white"/>
<path d="M797.336 891.329C796.681 896.861 794.182 900.238 794.182 900.238C793.704 896.628 793.304 882.466 793.304 882.466C792.616 875.102 794.904 871.925 798.125 866.116L801.835 859.418C802.79 865.083 802.412 868.77 800.102 873.702C798.514 877.09 797.436 880.255 797.403 884.065L797.347 891.329H797.336Z" fill="white"/>
<path d="M820.155 886.93C820.133 887.319 819.833 887.885 819.633 888.019C819.388 888.196 818.666 887.73 818.555 887.352C816.289 879.644 815.878 874.412 818.988 866.748C819.91 864.471 820.61 862.227 821.054 859.773C821.821 855.552 825.597 864.615 822.643 873.157C821.088 877.644 820.421 882.021 820.155 886.919V886.93Z" fill="white"/>
<path d="M922.662 895.505C923.117 897.116 924.228 906.413 922.429 907.223L916.031 893.095C914.731 890.207 915.453 887.408 916.719 884.709C917.719 882.576 917.908 879.488 919.408 879.655C921.04 879.833 919.285 883.476 919.941 885.808L922.662 895.505Z" fill="white"/>
<path d="M817.432 792.572C812.745 792.55 805.17 793.716 801.76 790.262C804.57 788.24 810.679 783.398 812.912 788.363C813.278 789.185 813.956 790.073 814.555 790.684C815.644 791.228 816.299 791.473 817.432 792.561V792.572Z" fill="white"/>
<path d="M770.735 801.394C770.469 803.382 771.18 805.171 770.191 806.437C770.08 806.581 769.703 805.948 769.68 805.77C769.447 803.371 769.147 800.794 768.769 798.384C768.225 794.841 768.214 791.353 769.48 787.987C770.491 785.277 771.813 782.778 773.834 780.579C774.046 780.346 774.456 781.456 774.323 781.756C773.379 783.9 772.757 786.455 772.435 788.82L770.747 801.405L770.735 801.394Z" fill="white"/>
<path d="M778.068 816.531C779.89 817.519 781.445 818.352 782.811 819.741L776.558 818.841C770.604 817.997 768.494 814.62 767.527 808.645L770.371 811.022C772.259 812.599 775.802 815.276 778.079 816.509V816.531H778.068Z" fill="white"/>
<path d="M802.026 804.58C802.848 805.435 803.559 806.168 804.203 807.09C800.127 806.135 797.838 803.114 796.694 799.47L794.539 792.55C794.473 792.317 794.517 791.862 794.573 791.684C794.628 791.495 795.272 791.751 795.45 791.906C799.926 795.672 797.383 800.503 802.048 804.58H802.026Z" fill="white"/>
<path d="M784.897 778.387C785.13 778.553 785.397 779.242 785.264 779.464C784.297 781.13 779.11 774.532 779.599 772.422C781.387 774.732 782.609 776.687 784.886 778.375H784.897V778.387Z" fill="white"/>
<path d="M787.318 783.108C788.873 780.364 789.784 780.176 790.24 781.12C790.717 782.119 787.096 786.307 787.141 788.595C787.207 791.716 789.818 794.326 790.029 796.759C790.24 799.191 789.385 803.079 790.851 805.512C792.672 808.555 795.338 810.765 798.626 811.876C800.859 812.642 800.214 812.931 799.503 813.031C797.793 813.253 793.639 813.031 790.662 809.399C787.863 805.989 786.73 803.501 787.53 800.369C788.174 797.859 786.996 793.516 785.675 791.25C784.353 788.973 785.986 785.452 787.318 783.119V783.108Z" fill="white"/>
<path d="M825.84 805.422C826.206 804.178 822.585 804.045 821.019 804.112C819.453 804.167 817.309 805.033 817.22 807.821C817.143 810.109 819.819 811.209 822.307 811.42C824.262 811.576 826.406 811.231 826.761 811.076C826.795 811.076 826.784 811.02 826.761 811.009C826.317 810.909 824.429 810.52 822.541 810.054C820.386 809.521 818.687 808.521 818.953 807.344C819.22 806.155 820.708 805.322 822.407 805.422C824.107 805.533 825.695 805.9 825.829 805.422H825.84Z" fill="white"/>
<path d="M889.894 746L896.192 767.948L918.14 774.246L896.192 780.544L889.894 802.492L883.597 780.544L861.648 774.246L883.597 767.948L889.894 746Z" fill="white"/>
</svg>
