<svg width="1800" height="1800" viewBox="0 0 1800 1800" fill="none" xmlns="http://www.w3.org/2000/svg">
<rect width="1800" height="1800" fill="white"/>
<path d="M497.314 653.821C493.56 660.886 487.146 664.214 474.76 660.42C481.286 674.805 480.029 688.539 474.446 699.046C468.382 710.459 456.947 712.745 447.164 707.547C435.027 701.099 429.458 688.848 438.048 642.076L424.739 634.772C406.007 624.122 396.151 625.622 391.724 633.955C386.334 644.099 393.427 650.423 401.499 657.964C410.019 665.975 409.871 671.937 407.946 675.56C406.117 679.001 400.762 680.337 395.69 677.642C383.915 671.386 380.151 649.177 390.354 629.975C399.979 611.86 411.228 605.99 430.866 617.121C440.371 622.404 451.772 628.926 464.549 635.482C487.107 647.236 490.498 647.412 493.001 642.702C494.156 640.528 494.128 637.958 493.16 636.282L495.124 634.771C500.106 641.134 501.164 646.575 497.314 653.821ZM450.789 687.173C459.484 691.793 467.229 690.333 471.464 682.363C474.832 676.022 475.144 667.129 471.306 659.05C467.576 657.765 463.675 655.925 459.147 653.518L440.947 643.616C435.969 670.472 439.739 681.302 450.789 687.173ZM528.794 609.122C519.985 620.72 507.528 624.911 486.455 608.905L432.876 568.207L426.92 576.048L425.286 574.807C425.858 561.846 423.724 548.376 418.828 537.187L420.683 535.762L441.429 551.52C445.399 546.293 453.758 534.61 457.48 529.709L461.074 532.439C458.22 536.196 448.385 547.788 444.043 553.505L492.068 589.984C510.854 604.253 519.804 603.323 526.132 594.992C529.11 591.072 529.879 585.989 529.526 583.402L532.112 583.049C535.512 590.782 534.998 600.954 528.794 609.122ZM579.186 556.35C560.324 574.321 530.474 572.729 508.682 549.857C484.344 524.312 485.704 498.083 505.159 479.547C521.942 463.557 544.252 464.967 559.393 480.858L559.648 482.315L513.905 525.898C515.596 527.97 517.435 529.901 519.416 531.98C540.217 553.812 562.478 557.252 578.221 542.253C586.538 534.329 589.436 522.501 588.21 513.186L590.976 512.817C595.648 529.616 591.958 544.181 579.186 556.35ZM511.648 523.232L544.024 492.384C528.735 476.635 515.005 474.416 506.094 482.906C495.846 492.67 498.134 506.074 511.648 523.232ZM608.859 522.32C615.401 516.276 616.583 509.71 613.657 505.498L543.427 404.421C539.331 398.525 533.855 397.834 525.871 402.881L524.467 400.86L543.275 375.801L545.948 375.693L628.818 494.964C631.862 499.344 638.765 500.292 646.763 495.984L648.167 498.006L610.264 524.342L608.859 522.32ZM652.159 492.524C659.319 487.227 661.208 480.828 658.757 476.323L627.874 419.564C625.423 415.059 620.368 412.205 610.884 416.665L609.707 414.503L629.266 388.214L631.934 388.397L674.974 467.499C677.523 472.184 684.283 473.877 692.701 470.465L693.878 472.627L653.336 494.686L652.159 492.524ZM598.078 372.956C594.94 367.19 597.256 359.858 602.842 356.819C608.608 353.682 615.842 355.818 618.979 361.584C622.117 367.35 619.981 374.584 614.215 377.721C608.629 380.76 601.215 378.722 598.078 372.956ZM745.959 455.652C721.432 464.434 694.79 450.877 684.141 421.135C672.248 387.917 684.124 364.491 709.424 355.433C731.247 347.62 751.07 357.953 758.469 378.618L758.111 380.053L698.628 401.35C699.334 403.93 700.233 406.441 701.201 409.145C711.365 437.534 730.32 449.704 750.792 442.374C761.607 438.502 769.051 428.865 771.707 419.852L774.385 420.636C771.845 437.887 762.568 449.706 745.959 455.652ZM697.646 397.998L739.747 382.924C732.156 362.329 720.504 354.735 708.916 358.883C695.59 363.654 692.247 376.835 697.646 397.998ZM786.968 436.629C795.49 434.04 799.416 428.645 798.618 423.579L788.722 360.763C787.285 351.644 782.168 346.844 773.05 348.28L772.666 345.848L799.983 330.747L802.436 331.814L805.883 353.698C813.257 339.869 823.958 327.385 834.09 325.789C841.79 324.576 848.742 327.841 849.923 335.339C850.785 340.81 847.339 345.299 841.462 346.224C834.775 347.278 831.951 342.531 822.427 344.032C816.753 344.925 811.174 350.373 806.927 357.687L816.855 420.706C817.685 425.975 823.485 429.837 836.613 428.808L836.996 431.239L787.351 439.06L786.968 436.629ZM1047.64 391.316C1052.92 363.714 1047.47 356.196 1035.58 353.92C1027.73 352.416 1017.62 356.12 1012.62 364.771C1012.13 368.436 1011.48 372.907 1010.67 377.138L1000.68 429.32C999.678 434.558 1003.83 440.156 1012.5 442.861L1012.04 445.278L966.705 436.6L967.168 434.182C976.063 434.632 981.584 430.885 982.548 425.848L991.227 380.517C996.511 352.915 991.058 345.396 979.171 343.12C971.515 341.655 962.088 345.072 956.842 352.839L944.268 418.52C943.265 423.758 947.415 429.357 956.087 432.061L955.624 434.479L910.292 425.8L910.755 423.383C919.65 423.832 925.171 420.086 926.135 415.049L938.092 352.592C939.828 343.525 936.638 337.275 927.572 335.54L928.035 333.122L958.851 328.161L960.797 329.996L957.442 347.524L957.566 347.965C966.126 337.073 979.727 332.575 989.197 334.388C1002.7 336.972 1011.45 344.705 1012.03 361.316C1020.53 348.532 1035.54 343.259 1045.61 345.188C1062.94 348.505 1072.41 360.134 1067.08 387.937L1057.09 440.119C1056.09 445.358 1060.24 450.956 1068.91 453.66L1068.45 456.078L1023.12 447.4L1023.58 444.982C1032.48 445.432 1038 441.685 1038.96 436.648L1047.64 391.316ZM1136.66 490.304C1129.46 486.807 1125.9 480.517 1129.25 468.002C1115.11 475.042 1101.34 474.28 1090.64 469.08C1079.01 463.432 1076.32 452.086 1081.16 442.123C1087.16 429.761 1099.21 423.753 1146.26 430.653L1153.08 417.09C1163.05 397.986 1161.19 388.191 1152.7 384.066C1142.37 379.045 1136.31 386.361 1129.06 394.7C1121.36 403.503 1115.4 403.57 1111.71 401.777C1108.21 400.074 1106.68 394.77 1109.19 389.604C1115.02 377.611 1137.08 373.05 1156.63 382.554C1175.08 391.52 1181.35 402.55 1170.94 422.576C1166 432.265 1159.89 443.894 1153.8 456.899C1142.87 479.866 1142.82 483.262 1147.61 485.593C1149.83 486.669 1152.39 486.548 1154.03 485.52L1155.62 487.429C1149.44 492.636 1144.04 493.89 1136.66 490.304ZM1101.65 445.011C1097.35 453.867 1099.08 461.553 1107.2 465.499C1113.66 468.637 1122.56 468.628 1130.49 464.501C1131.64 460.727 1133.34 456.763 1135.58 452.15L1144.82 433.605C1117.81 429.599 1107.12 433.756 1101.65 445.011ZM1129.97 538.233C1123.59 533.406 1121.86 525.153 1126.07 519.591C1129.54 515.01 1134.79 513.842 1139.21 517.184C1145.43 521.887 1143.13 530.699 1148.69 534.907C1153.93 538.867 1168.31 533.799 1187.72 522.763L1211.45 430.88C1213.16 424.2 1211.13 419.063 1206.68 414.408L1208.17 412.445L1246.28 441.283L1244.8 443.246C1235.46 438.242 1230.13 438.835 1227.92 446.17L1208.82 511.2C1228.15 499.588 1245.38 490.758 1263.85 477.214C1270.36 472.359 1271.41 466.21 1264.1 457.851L1265.58 455.888L1294.05 477.423L1292.69 479.223C1285.93 475.912 1278.63 476.046 1267.2 482.316C1247.33 493.268 1225.87 505.322 1204.6 517.787C1169.11 538.521 1144.2 549.001 1129.97 538.233ZM1322.73 573.768C1342.74 557.086 1342.02 546.402 1333.27 536.071C1327.57 529.341 1316.72 525.094 1308.07 527.58L1257.04 570.803C1252.97 574.251 1252.69 581.213 1257.74 588.763L1255.86 590.354L1226.03 555.136L1227.91 553.545C1234.55 559.48 1241.2 560.031 1245.11 556.716L1293.63 515.614C1300.68 509.648 1302.12 502.781 1296.15 495.737L1298.03 494.146L1325.13 509.635L1325.49 512.285L1311.4 524.218C1324.3 521.356 1338.34 525.866 1346.56 535.571C1358.89 550.128 1360.15 566.533 1338.42 584.674L1296.99 619.231C1293.63 622.883 1293.52 629.423 1298.31 636.661L1296.43 638.252L1266.6 603.033L1268.48 601.442C1275.12 607.377 1281.77 607.928 1285.68 604.613L1322.73 573.768ZM1318.07 683.964C1305.86 660.95 1315.46 632.639 1343.36 617.834C1374.53 601.299 1399.42 609.692 1412.01 633.431C1422.87 653.908 1415.49 675.008 1396.1 685.295L1394.63 685.147L1365.02 629.333C1362.57 630.402 1360.21 631.651 1357.68 632.997C1331.04 647.129 1321.71 667.634 1331.9 686.842C1337.29 696.99 1347.89 702.975 1357.19 704.31L1356.8 707.073C1339.36 707.034 1326.34 699.548 1318.07 683.964ZM1368.2 627.88L1389.16 667.385C1408.45 656.917 1414.29 644.296 1408.52 633.423C1401.89 620.92 1388.37 619.502 1368.2 627.88Z" fill="black"/>
<path d="M964.474 704.887L902.518 766.825H1029.23L938.349 746.279L964.474 704.887Z" fill="black"/>
<path d="M901.404 765.71L963.36 703.772L921.967 729.897L901.404 639V765.71Z" fill="black"/>
<path d="M899.825 765.728V639L879.279 729.897L837.887 703.772L899.825 765.728Z" fill="black"/>
<path d="M964.474 830.354L938.349 788.962L1029.23 768.398H902.518L964.474 830.354Z" fill="black"/>
<path d="M836.772 704.887L862.897 746.279L772 766.825H898.728L836.772 704.887Z" fill="black"/>
<path d="M836.772 830.354L898.728 768.398H772L862.897 788.962L836.772 830.354Z" fill="black"/>
<path d="M901.404 769.52V896.23L921.967 805.351L963.36 831.475L901.404 769.52Z" fill="black"/>
<path d="M899.825 769.52L837.887 831.475L879.279 805.351L899.825 896.23V769.52Z" fill="black"/>
<path d="M900.876 1243.96C896.489 1243.11 885.881 1248.35 885.057 1248.21C884.924 1250.61 884.871 1253.05 884.871 1255.5C884.871 1259.03 885.164 1262.84 885.669 1266.77L890.64 1260.26C893.352 1256.72 902.126 1246.38 902.684 1245.24C902.923 1244.78 901.355 1244.07 900.876 1243.96ZM895.054 1294.63L892.103 1294.95C892.847 1297.37 893.618 1299.74 894.416 1302.02C896.436 1300.51 897.978 1298.99 898.643 1297.56C899.121 1296.49 896.356 1294.53 895.054 1294.66V1294.63ZM900.876 1243.96C896.489 1243.11 885.881 1248.35 885.057 1248.21C884.924 1250.61 884.871 1253.05 884.871 1255.5C884.871 1259.03 885.164 1262.84 885.669 1266.77L890.64 1260.26C893.352 1256.72 902.126 1246.38 902.684 1245.24C902.923 1244.78 901.355 1244.07 900.876 1243.96ZM895.054 1294.63L892.103 1294.95C892.847 1297.37 893.618 1299.74 894.416 1302.02C896.436 1300.51 897.978 1298.99 898.643 1297.56C899.121 1296.49 896.356 1294.53 895.054 1294.66V1294.63ZM324.806 823.818C314.198 824.004 306.488 812.572 298.991 825.998C296.598 830.252 296.253 834.931 295.694 840.036L286.469 851.654C278.147 862.102 270.225 880.633 268.151 893.793C266.29 905.465 263.605 916.87 262.568 928.621C261.637 939.282 260.494 948.747 257.782 959.142C250.976 985.197 248.397 1011.57 251.641 1038.45C255.044 1066.58 262.993 1093.22 275.249 1118.66L296.572 1162.9C305.053 1180.45 312.098 1197.86 317.495 1216.44C312.337 1227.42 306.568 1236.62 299.895 1246.22L269.533 1289.9C242.602 1328.69 229.202 1374.98 229.92 1422.43C230.079 1432.64 231.568 1442.21 235.955 1451.12C237.843 1454.97 244.223 1456.36 248.105 1455.35C259.377 1452.34 269.613 1447.72 279.344 1441.68C302.686 1427.14 302.128 1401.64 303.484 1378.41C304.122 1367.45 320.818 1351.87 329.538 1345.39L383.189 1305.53C386.141 1311.12 388.427 1315.45 391.351 1320.34C403.608 1340.84 412.168 1362.59 418.576 1385.72C422.537 1400.1 425.701 1414.03 426.711 1428.92C411.264 1435.22 394.276 1444.82 388.161 1461.2C387.975 1464.71 388.214 1469.54 390.846 1472.31C393.292 1474.83 397.812 1476.19 401.534 1476.94C423.148 1481.37 445.534 1481 466.67 1475.39C474.3 1473.37 478.235 1468.14 478.953 1460.74C479.937 1450.59 480.867 1440.96 481.133 1430.73C481.931 1400.34 479.564 1370.7 474.061 1340.6C468.026 1307.55 460.103 1275.68 450.665 1243.64L478.82 1246.99C490.066 1247.18 500.275 1245 509.766 1239.04C512.877 1237.1 516.679 1236.06 520.481 1235.93C544.94 1235.03 573.228 1230.14 594.922 1217.88C588.275 1249.65 584.739 1280.25 584.5 1311.89L584.155 1364.69C583.995 1385 577.933 1403.69 565.092 1419.38C550.204 1429.03 525 1442.75 516.466 1458.14C513.302 1463.85 511.627 1471.09 514.499 1477.2C516.253 1480.95 521.278 1483.34 525.24 1484.09C537.336 1486.37 549.141 1487.86 561.264 1488.53C572.111 1489.11 580.884 1485.44 589.312 1479.3C625.921 1452.64 640.836 1424.16 656.044 1382.77L669.071 1347.25C677.765 1323.56 688.293 1300.75 703.872 1280.94L715.517 1266.13C725.726 1278.04 736.068 1289.16 747.766 1299.9L802.693 1350.33C806.814 1354.11 811.493 1356.37 816.598 1358.73C792.005 1369.58 759.384 1375.3 742.715 1348.95C736.6 1339.3 731.229 1329.51 725.965 1319.23C724.237 1315.85 722.217 1313.3 717.83 1313.22C705.84 1313.08 695.976 1320.48 691.031 1331.03C689.861 1333.53 687.947 1336.11 688.505 1339.19C693.796 1368.01 703.394 1389.01 729.953 1403.66C760.74 1420.68 801.869 1417.91 833.852 1402.12C833.294 1409.88 835.447 1421.5 827.684 1424.85L810.802 1432.14C799.343 1437.11 791.66 1446.81 788.071 1458.64C786.715 1463.08 785.253 1468.14 786.555 1472.68C788.204 1478.34 794.398 1481.19 800.38 1481.24C818.512 1481.38 836.351 1478.72 854.005 1474.7C860.305 1473.29 865.383 1470.55 868.574 1464.89C871.817 1459.12 874.795 1453.43 876.975 1446.84C886.094 1419.08 891.013 1389.87 889.417 1360.67C889.178 1356.42 888.779 1355.25 891.411 1351.85C894.575 1347.78 897.393 1343.53 899.972 1339.11C903.561 1333.1 906.645 1326.8 909.623 1320.4C910.314 1318.91 910.952 1317.44 911.617 1315.96C915.419 1307.45 918.582 1298.73 920.895 1289.79C922.943 1281.9 924.298 1273.79 924.857 1265.49C925.016 1263.39 925.123 1261.27 925.149 1259.14C925.202 1256.4 925.149 1253.64 925.043 1250.93V1251.01L925.096 1251.06C924.538 1236.68 921.932 1222.61 917.572 1209.03C915.392 1202.25 912.787 1195.57 909.782 1189.06C908.559 1186.37 907.336 1183.72 906.06 1181.11C904.173 1177.15 902.205 1173.27 900.025 1169.55C897.34 1164.84 894.362 1160.32 890.8 1156.01C870.089 1130.73 846.906 1108.16 821.171 1088.03C791.554 1064.82 758.081 1048.9 721.393 1040.66C698.635 1035.52 676.568 1032.97 653.252 1032.81C632.382 1032.65 612.735 1034.89 592.051 1037.25L532.551 1044.06C517.875 1045.73 503.811 1046.24 489.135 1045.97C453.749 1045.36 422.537 1033.64 401.295 1004.68C396.217 997.745 392.149 991.524 387.018 983.495C394.462 980.385 407.835 978.949 415.279 980.384C428.944 983.017 446.943 986.845 458.455 976.104C462.39 972.435 464.118 966.294 464.357 961.03L464.809 950.847C466.59 948.428 470.818 945.769 471.668 942.738C474.327 933.114 473.769 922.852 469.993 913.653C467.627 907.884 463.028 903.045 458.322 899.084L439.339 883.212C425.355 871.514 422.377 855.296 413.285 849.82C399.487 841.525 385.954 834.16 371.704 826.716C365.855 823.659 357.986 823.925 351.605 823.792M811.626 1151.36C810.111 1148.46 808.941 1145.59 808.064 1143.12L824.866 1155.83C836.325 1164.52 846.002 1174.25 853.553 1186.72C864.373 1204.56 872.322 1223.86 874.449 1244.84C874.689 1246.94 874.848 1249.01 874.954 1251.11C875.273 1255.98 875.327 1260.82 875.141 1265.65C874.529 1280.46 871.392 1295.19 864.958 1309.73C848.156 1293.57 836.83 1281.07 830.104 1258.53C818.432 1219.18 829.811 1186.32 811.6 1151.39L811.626 1151.36ZM915.658 1255.07L908.692 1260.39C905.023 1263.18 889.949 1275.39 893.139 1280.33C893.831 1281.39 896.649 1281.77 897.925 1281.05C899.626 1280.12 915.233 1270.76 913.691 1277.35C912.122 1284.21 906.805 1304.5 903.933 1309.87L900.238 1316.81L898.457 1320.16C895.825 1320.21 893.166 1320.42 890.534 1320.85C886.573 1321.46 882.691 1322.55 879.049 1324.2C877.985 1324.68 879.341 1327.79 880.298 1328.08C884.206 1329.22 887.53 1331.99 889.311 1336C884.206 1344.35 878.464 1351.37 871.897 1358.89L856.291 1352.96C854.855 1352.43 851.984 1355.17 852.436 1356.69C853.898 1361.9 856.344 1365.91 859.986 1370.43C851.107 1378.59 840.685 1385.74 829.705 1391.25C827.02 1387.74 817.581 1379.68 814.577 1380.59C812.424 1381.22 813.115 1394.62 808.25 1399.49C798.173 1402.81 787.858 1403.88 777.543 1403.96C775.841 1398.88 770.364 1389.01 767.573 1385.77C767.121 1385.27 764.861 1386.54 764.622 1387.34L759.783 1402.73C745.347 1400.42 732.107 1394.6 721.127 1385.27C723.785 1382.98 733.064 1375.88 730.698 1372.88C728.757 1370.4 715.357 1373.99 711.396 1374.55C705.388 1365.22 700.815 1354.24 700.576 1343.18C700.389 1334.03 706.398 1326.75 714.48 1324.04L716.315 1323.43C716.74 1323.27 716.182 1325.21 716.049 1325.71C711.29 1343.82 710.386 1340.04 710.971 1361.05C711.051 1363.47 714.161 1364.42 715.544 1362.45L727.826 1345.12C728.012 1344.85 728.624 1343.9 728.624 1343.84C728.677 1343.84 729.235 1344.48 729.368 1344.75L734.154 1353.15C736.174 1356.74 731.894 1373.25 747.022 1385.82C751.913 1387.07 750.026 1372.21 750.239 1370.09L768.184 1376.33C770.285 1378.86 773.049 1382.37 776.107 1383.8L795.355 1392.84C797.775 1390.29 792.856 1381.78 792.059 1380.67L789.613 1377.21L788.895 1376.23C788.443 1375.62 807.372 1372.32 810.589 1370.94L818.326 1371.97L838.744 1374.74C839.994 1374.9 842.12 1374.53 842.865 1373.81C847.119 1369.66 836.644 1362.99 833.188 1360.59C840.366 1355.89 846.853 1350.94 852.835 1345.01L859.747 1344.06C868.946 1342.81 874.237 1345.63 875.779 1342.94C876.177 1342.22 875.539 1339.99 874.795 1339.38L865.942 1332.04C864.825 1331.11 865.171 1329.89 866.048 1328.34L873.306 1315.4C876.018 1312.98 880.431 1310.45 884.845 1307.93C888.274 1305.96 891.677 1303.99 894.283 1302.05C896.303 1300.54 897.845 1299.02 898.51 1297.58C898.988 1296.52 896.223 1294.55 894.921 1294.69L891.97 1295.01L880.936 1296.12C880.83 1295.94 880.617 1295.56 880.538 1295.38V1295.32H880.511C882.744 1286.07 883.887 1277.35 884.791 1267.83L885.562 1266.82L890.534 1260.31C893.219 1256.77 902.019 1246.43 902.578 1245.29C902.817 1244.84 901.248 1244.12 900.77 1244.01C896.383 1243.16 885.775 1248.4 884.951 1248.27H884.898C884.791 1247.82 884.499 1246.54 884.393 1245.9L881.84 1228.65C881.282 1226.01 880.405 1222.98 879.341 1219.87C874.689 1205.92 866.606 1189.22 866.606 1189.22C868.521 1184.75 870.408 1179.57 871.046 1174.44L871.764 1168.56C871.817 1168.22 871.419 1166.94 871.339 1166.59C871.232 1166.25 870.328 1167.23 870.063 1167.66C867.324 1171.78 863.655 1175.34 859.853 1178.27C854.43 1170.72 849.379 1164.15 842.918 1158.11C840.765 1156.09 840.844 1155.14 840.765 1152.1C840.658 1147.16 839.781 1142.11 839.249 1136.98L838.983 1134.56C838.93 1134.08 837.495 1135.12 837.229 1135.57L831.433 1145.7C831.167 1146.15 830.768 1147.08 830.476 1146.97C830.05 1146.81 828.854 1146.31 828.508 1145.99C817.528 1137 805.591 1128.82 797.163 1117.09C792.83 1111.08 791.793 1103.19 788.922 1096.35L784.615 1086.01C783.418 1083.14 776.718 1087.07 775.15 1094.94C772.571 1107.79 771.534 1120.79 770.072 1133.76C766.749 1133.44 764.143 1135.09 763.558 1138.44L759.81 1159.23L755.875 1154.66C754.997 1153.65 752.286 1152.69 750.797 1153.06C749.175 1153.46 747.766 1156.09 747.766 1158.14V1169.92C747.793 1170.48 747.155 1172.28 746.995 1172.74C746.809 1173.21 745.772 1171.86 745.214 1171.43C743.326 1170.21 740.747 1168.99 738.78 1169.04C736.414 1169.12 734.34 1171.88 734.154 1174.41C733.596 1182.04 732.399 1189.09 730.91 1196.18L725.726 1191.21C725.194 1190.71 722.695 1192.33 722.748 1193.1L723.227 1202.27C723.785 1213.04 722.669 1223.81 718.495 1233.86L716.208 1225.32C715.942 1224.26 712.034 1224.23 711.635 1225.24C710.678 1227.72 709.588 1231.62 709.11 1234.42C707.142 1245.56 703.314 1255.39 698.741 1265.95L695.365 1273.76C690.047 1272.06 685.235 1273.76 679.945 1274.88C669.284 1277.14 660.165 1280.97 651.125 1286.82L644.319 1291.23C646.978 1292.51 649.184 1292.64 652.268 1292.32L669.789 1290.57C670.959 1291.26 672.979 1292.43 674.096 1292.59C675.186 1292.75 676.462 1290.38 677.286 1288.92C679.014 1287.83 683.241 1288.07 685.528 1288.7L673.617 1308.03C664.232 1310.4 657.984 1314.65 649.902 1321.06L667.236 1320.58L657.692 1343.23C653.81 1343.05 649.105 1342.83 644.984 1343.71C634.775 1345.92 625.416 1345.87 614.117 1346.77C627.065 1353.79 639.082 1352.3 653.039 1356.37L638.577 1396.64C629.644 1394.36 620.578 1392.82 610.953 1393.99C615.898 1397.39 621.269 1396.88 624.247 1401.19C626.613 1404.62 628.926 1407.7 632.116 1410.68C624.512 1426.98 614.197 1441.55 600.984 1454.23L598.485 1442.51L594.47 1425.89C594.231 1424.88 592.636 1423.18 591.652 1423.15C590.642 1423.15 589.153 1425.07 589.046 1426.13C586.999 1442.72 583.729 1452.1 585.936 1468.99C582.267 1471.94 578.465 1476.8 574.025 1478.1C564.587 1480.9 555.255 1478.45 545.259 1477.73C549.539 1470.55 554.272 1465.21 559.669 1458.96C560.652 1457.85 560.812 1454.52 559.935 1453.46C559.057 1452.42 555.893 1452.1 554.617 1453.03C545.153 1459.84 536.805 1466.57 528.377 1474.52L520.853 1473.51C521.836 1458.59 539.25 1447.9 550.257 1439.55L548.529 1445.43C545.924 1454.28 560.094 1444.47 564.773 1439.42C581.416 1421.45 593.3 1400.47 595.401 1375.77C600.638 1370.32 608.135 1368.68 615.686 1366.63C609.199 1363.65 603.057 1363.01 596.039 1362.56V1321.99C608.348 1319.92 618.557 1323.64 627.517 1318.45L635.253 1314.01C629.776 1314.17 626.241 1314.6 621.801 1313.86C606.753 1311.33 609.571 1307.85 596.544 1305.8L597.075 1291.97C602.978 1290.59 608.667 1288.65 613.639 1284.96C620.95 1279.53 628.633 1278.34 638.444 1276.18C625.789 1269.72 612.097 1270.87 598.697 1273.05L601.489 1249.04C613.399 1248 624.698 1247.5 636.317 1245.5C644.931 1244.01 652.481 1243.38 661.574 1244.49C644.612 1234.39 631.77 1240.5 612.814 1235.98L604.041 1233.88C607.497 1215.99 610.049 1200.81 612.017 1193.1C614.995 1203.26 621.269 1205.6 630.361 1209.21C630.361 1209.21 646.925 1214.24 653.89 1218.44C663.913 1224.53 679.891 1234.31 687.256 1232.82C685.74 1224.45 664.684 1207.22 641.873 1192.73C631.717 1186.29 621.934 1166.83 621.934 1166.83C628.181 1149.37 636.609 1126.16 643.92 1109.49C645.702 1105.39 651.684 1093.08 650.088 1090.27C649.769 1089.71 647.483 1090.27 646.925 1090.77C631.239 1105.45 615.606 1147.72 608.268 1169.04L600.798 1177.02C598.325 1179.65 593.433 1179.41 589.552 1179.52C587.983 1179.54 585.75 1182.01 584.474 1183.18L583.703 1183.9C583.543 1184.06 582.613 1182.79 582.506 1182.28C580.752 1173.93 578.465 1162.58 575.408 1153.59C570.968 1140.65 566.023 1127.94 560.945 1115.52C560.679 1114.91 559.084 1114.01 558.499 1113.93C557.754 1113.79 556.292 1115.6 556.345 1116.56L557.356 1140.14C558.1 1157.48 558.791 1174.41 557.967 1191.82C555.76 1190.84 553.447 1189.83 551.666 1189.62C548.024 1189.19 544.355 1196.74 541.643 1195.87C538.453 1192.94 534.465 1191.61 530.53 1194.67L516.546 1144.39C516.546 1144.39 511.415 1156.25 511.521 1170.29C511.574 1176.09 512.053 1189.41 510.989 1197.38H498.547C483.26 1196.93 475.763 1213.07 465.926 1205.6C461.805 1202.49 456.541 1201.02 451.33 1199.56C448.778 1198.84 445.002 1194.43 444.63 1191.8C443.567 1184.06 443.46 1176.72 437.824 1169.89L431.045 1195.23C428.705 1203.95 428.519 1212.75 429.529 1221.71C427.588 1221.47 425.116 1221.23 423.866 1221.52C422.457 1221.89 421.367 1225.27 421.367 1226.73V1233.91C417.406 1233.11 414.109 1230.64 411.477 1233.46C409.27 1235.82 409.696 1240.48 409.27 1243.77L408.951 1246.19C408.898 1246.65 407.064 1244.97 407.09 1244.2C407.755 1233.75 409.111 1217.16 411.424 1205.49C413.179 1196.56 415.704 1189.49 416.422 1180.21C411.025 1187.46 409.563 1195.23 406.638 1202.96C401.587 1216.36 397.945 1229.74 395.685 1243.96C393.186 1259.75 391.192 1278.12 381.222 1290.88C365.111 1275.44 346.368 1278.97 326.215 1281.5C325.045 1281.66 323.184 1283.23 323.238 1284.19C323.291 1285.14 324.726 1286.98 325.816 1287.3L344.214 1292.67C353.094 1295.24 360.963 1298.91 369.152 1303.51C368.354 1304.58 367.371 1305.88 366.44 1306.57L322.998 1340.04C311.088 1337.38 299.044 1337.78 286.974 1341.16C285.778 1341.51 284.023 1343.55 283.917 1344.72C283.757 1346.02 285.618 1348.39 286.974 1349L303.883 1356.9L297.848 1365.75C285.166 1367.21 297.821 1384.71 289.579 1411C285.724 1423.31 278.36 1428.81 267.114 1435.7C260.574 1425.28 262.727 1408.82 259.271 1396.91C252.784 1407.97 249.089 1421.37 252.731 1431.55L256.267 1441.52L243.532 1446.41C234.466 1424.93 237.284 1411.75 239.571 1389.73C250.179 1385.69 254.034 1375.88 263.445 1370.27C269.241 1366.82 274.505 1363.57 279.503 1358.81C278.759 1357.83 276.659 1356.66 275.834 1356.87L255.071 1361.82C251.508 1362.67 248.211 1364.37 244.383 1366.07C248.105 1349.67 254.246 1334.06 261.983 1318.88C287.133 1316.01 306.834 1325.63 331.001 1315.34C332.33 1314.79 333.872 1312.61 333.553 1311.52C333.207 1310.43 330.788 1309.1 329.406 1309.07C300.639 1307.66 300.506 1301.57 274.399 1297.13L302.367 1256.22C317.335 1249.2 329.033 1249.78 344.666 1245.82C362.505 1241.27 370.667 1223.38 367.211 1220.59C363.09 1217.27 353.413 1226.92 339.721 1228.81L319.994 1231.52L319.303 1230.59C337.355 1203.42 339.242 1163.54 340.838 1131.55C342.247 1104.2 344.347 1081.68 356.63 1056.9C362 1046.08 369.418 1037.86 378.404 1029.25C373.034 1028.74 370.667 1032.95 367.158 1035.31C357.587 1041.77 350.462 1050.47 345.145 1060.91C330.974 1088.62 330.974 1117.28 329.538 1147.93C329.352 1148.28 329.087 1148.75 328.9 1149.05C327.784 1145.99 323.929 1134.27 320.393 1137.46L317.149 1140.41L315.687 1140.65C313.667 1134.66 307.445 1138.44 308.03 1134.85C308.642 1131.1 306.86 1120.1 308.243 1109.27C310.662 1090.35 320.978 1079.29 330.629 1063.81C331.479 1062.43 329.831 1060.86 328.528 1061.82C319.515 1068.28 304.601 1079.15 301.57 1083.7C289.925 1101.01 290.749 1114.75 290.377 1121.48C287.612 1121.24 279.078 1098.96 279.078 1098.96C281.976 1096.01 291.52 1075.91 293.328 1072.35C298.087 1062.96 306.568 1050.44 311.433 1043.45C312.497 1041.93 310.875 1039.99 309.2 1040.76C304.095 1043.15 296.651 1047.01 290.723 1051.82C272.431 1066.58 270.623 1073.06 270.623 1073.06C269.613 1069.9 268.736 1066.66 267.912 1063.44C267.141 1060.3 266.423 1057.11 265.811 1053.92C265.439 1052.01 263.738 1047.59 264.987 1046C265.678 1045.1 267.726 1044.4 268.709 1043.79C269.852 1043.07 270.969 1042.3 272.086 1041.56C274.399 1039.94 276.605 1038.21 278.785 1036.43C287.426 1029.33 295.349 1021.3 304.601 1014.97C308.03 1012.61 311.699 1010.51 314.491 1007.42C315.607 1006.23 316.644 1004.6 316.192 1003.04C313.028 1002.9 309.891 1003.57 306.807 1004.23C300.161 1005.67 293.434 1007.13 287.32 1010.08C284.927 1011.25 282.64 1012.61 280.354 1013.99C276.366 1016.38 272.405 1018.77 268.417 1021.17C267.407 1021.75 263.605 1024.86 262.541 1024.54C261.425 1024.2 261.877 1019.79 261.85 1018.83C261.823 1016.59 262.674 991.657 263.259 991.763C275.17 993.757 282.056 995.672 291.228 989.371L296.837 985.516C296.678 985.436 295.827 984.984 295.428 984.771C290.988 985.01 287.08 984.585 283.119 983.309L265.2 977.46C268.018 964.14 270.464 952.549 271.66 939.681L275.037 903.098C277.35 878.081 283.013 870.716 297.582 850.298L298.778 851.681C301.623 859.869 306.914 867.074 315.448 869.307C316.511 869.573 318.133 869.573 318.771 869.095C319.542 868.536 318.399 866.144 317.575 865.426C306.993 856.599 299.682 841.817 306.993 827.992L327.279 837.909C329.751 839.105 333.128 839.424 335.786 839.212C335.839 834.506 332.357 833.07 328.927 830.731C328.502 830.917 330.203 829.986 330.442 830.013L349.584 830.385C356.258 830.545 361.655 831.262 367.876 832.778L372.847 834.001C365.51 838.201 357.294 842.269 353.36 850.777C363.462 847.294 370.242 840.514 380.531 839.531C383.243 839.265 386.965 842.429 389.597 843.545L390.74 844.715C383.402 847.507 378.111 849.953 372.262 854.472C385.476 853.781 390.66 849.554 404.831 851.601C408.499 852.133 414.933 859.55 416.156 861.65L421.341 870.397C424.744 876.167 428.386 881.883 433.491 886.349L456.195 906.209C459.678 909.266 462.948 913.467 463.347 918.226C459.864 920.885 453.377 923.304 448.964 921.602C445.428 920.247 436.92 913.839 436.202 916.205L435.777 917.668C438.037 919.715 440.536 921.788 443.381 923.384L465.075 935.507C464.038 940.984 460.263 944.892 456.195 948.454C446.598 956.882 433.969 960.95 421.261 957.254L412.434 951.725C411.53 951.166 408.367 951.273 408.021 952.177C407.675 953.107 408.021 955.42 408.712 956.218C420.782 970.016 443.381 964.752 457.498 956.643C458.641 965.071 452.898 972.036 444.869 974.403C431.045 978.47 415.04 967.729 404.964 969.404L386.273 972.515C369.232 975.333 352.482 970.388 337.94 961.561C329.645 956.537 323.583 949.917 318.399 941.728C311.646 931.12 309.253 919.316 306.674 906.634C301.836 920.114 305.239 933.407 310.263 945.69C318.053 964.805 341.263 979.614 361.575 981.82L373.193 992.588C372.847 992.269 365.988 994.768 365.058 994.98C362.426 995.592 359.794 996.044 357.162 996.549C352.296 997.479 347.271 998.383 343.071 1001.15C338.418 1004.21 336.025 1007.02 336.025 1007.02C335.068 1008.09 334.138 1009.31 333.207 1010.67L322.573 1028.59L321.855 1030.29C329.964 1020.64 339.827 1014.81 351.472 1010.99C371.199 1004.5 373.565 1010.4 389.331 1004.39C394.489 1011.86 399.859 1018.54 406.506 1024.94C407.436 1025.87 404.006 1035.55 403.581 1037.01C402.491 1040.87 401.241 1044.7 399.939 1048.47C397.44 1055.81 394.675 1062.7 392.601 1070.27C387.948 1087.31 383.987 1104.73 383.402 1122.49C390.607 1108.32 397.812 1094.12 405.017 1079.95C408.553 1073.04 412.354 1066.6 416.582 1060.17C417.645 1058.52 426.525 1040.07 425.089 1039.35L441.493 1047.62C443.567 1048.66 445.082 1056.18 445.614 1058.28C446.624 1062.06 447.182 1065.65 447.182 1069.53V1151.01C447.182 1151.36 447.182 1151.73 447.395 1152C447.927 1152.74 449.097 1152.13 449.761 1151.47C454.44 1146.57 457.179 1140.11 458.721 1133.49C460.289 1126.9 460.715 1120.12 461.353 1113.37C462.363 1102.73 463.958 1092.13 466.059 1081.65C467.122 1076.33 468.372 1071.02 469.728 1065.75C470.259 1063.73 470.711 1062.24 471.881 1060.6C472.306 1059.98 475.018 1055.89 475.364 1055.89C481.479 1056.58 487.593 1056.05 493.097 1057.46C498.494 1058.87 499.876 1061.37 502.349 1066.23C503.838 1069.18 505.247 1072.16 506.443 1075.24C513.648 1093.67 518.859 1112.89 521.996 1132.43C522.98 1138.55 523.724 1144.71 525.133 1150.75C525.319 1151.55 525.745 1152.56 526.595 1152.5C526.941 1152.5 527.26 1152.24 527.526 1152.03C529.866 1149.95 530.557 1146.57 530.982 1143.52C531.514 1139.77 531.806 1135.99 531.939 1132.22C532.63 1111.08 533.428 1089.89 532.311 1068.76C532.178 1066.36 532.019 1063.97 531.859 1061.58C531.78 1060.52 530.743 1056.55 531.461 1055.65C532.258 1054.67 535.794 1054.85 536.964 1054.69C542.84 1053.39 550.363 1051.77 555.973 1054.27C562.194 1057.01 571.367 1061.79 574.743 1067.53C587.877 1089.68 597.315 1140.25 598.431 1139.72C599.123 1139.37 601.941 1125.73 603.19 1118.13C606.008 1100.77 606.886 1084.31 603.35 1067.11C602.366 1062.46 600.957 1053.79 602.074 1049.03C603.004 1044.96 606.327 1045.47 610.103 1045.07C614.596 1044.59 620.152 1041.83 624.645 1042.65C629.856 1043.61 634.509 1052.65 637.593 1056.98C646.154 1069.05 653.438 1082.26 657.054 1096.7C660.563 1110.71 666.12 1139.05 666.12 1139.05C666.12 1139.05 673.697 1096.65 670.453 1083.62L659.553 1042.68C687.601 1044.32 691.882 1041.96 706.823 1070.27C714.134 1084.1 717.564 1098.53 719.771 1113.9C721.499 1126 718.601 1133.18 721.286 1136.39C721.845 1137.08 724.609 1136.05 724.769 1134.98C725.248 1131.74 725.726 1127.06 725.753 1123.29L725.832 1106.35C725.886 1095.13 724.822 1083.94 722.961 1072.88C721.765 1065.86 721.419 1059.74 723.2 1052.46C727.029 1053.1 730.006 1053.87 733.516 1055.01C746.065 1077.48 756.008 1114.41 756.593 1139.02C756.593 1139.72 756.938 1141.15 757.071 1141.42C757.204 1141.71 757.63 1141.82 757.789 1141.58C761.112 1136.95 762.947 1111.91 763.452 1104.78C763.558 1103.21 765.02 1100.29 764.755 1098.77L761.352 1077.21C761.139 1075.99 759.251 1063.94 761.006 1064.56C771.933 1068.31 794.584 1080.77 805.033 1088.09C802.507 1098.8 814.391 1114.59 820.878 1123.13C822.314 1125.01 823.404 1127.11 826.062 1126.71C822.686 1117.44 820.213 1109.14 817.821 1099.33L819.363 1098.11C832.23 1108.18 843.875 1118.34 855.281 1129.85C850.017 1143.23 857.487 1144.29 858.577 1159.58C859.189 1168.4 863.044 1136.34 863.895 1138.86L877.879 1153.75C882.319 1158.49 886.094 1163.48 890.481 1169.28C886.865 1172.31 884.073 1175.05 883.409 1179.91L881.707 1192.3C881.654 1192.68 881.628 1193.39 881.601 1193.71C881.601 1194.03 882.957 1193.29 883.223 1192.86C885.669 1188.77 889.869 1184.35 894.229 1180.55C894.921 1179.94 895.638 1179.36 896.33 1178.77C898.164 1181.48 899.786 1184.35 901.248 1187.33C903.854 1192.65 906.007 1198.36 907.868 1204.19C908.772 1206.9 909.57 1209.61 910.367 1212.35C910.261 1212.46 910.128 1212.56 910.048 1212.64C902.684 1219.5 903.747 1220.91 897.234 1228.7C896.569 1229.5 895.851 1230.64 896.117 1231.33C896.436 1232.16 898.988 1233.22 899.866 1232.98L912.281 1229.55L913.637 1229.15C914.993 1228.78 916.136 1251.94 915.631 1255.05H915.658V1255.07ZM895.054 1294.63L892.103 1294.95C892.847 1297.37 893.618 1299.74 894.416 1302.02C896.436 1300.51 897.978 1298.99 898.643 1297.56C899.121 1296.49 896.356 1294.53 895.054 1294.66V1294.63ZM900.876 1243.96C896.489 1243.11 885.881 1248.35 885.057 1248.21C884.924 1250.61 884.871 1253.05 884.871 1255.5C884.871 1259.03 885.164 1262.84 885.669 1266.77L890.64 1260.26C893.352 1256.72 902.126 1246.38 902.684 1245.24C902.923 1244.78 901.355 1244.07 900.876 1243.96Z" fill="black"/>
<path d="M492.303 1147.91C489.884 1160.16 491.133 1182.55 488.395 1185.29C487.783 1185.9 485.497 1184.7 485.125 1183.83C476.856 1163.09 470.795 1147.48 476.484 1124.67C479.382 1113.05 480.472 1101.81 479.754 1089.74C479.568 1086.44 479.675 1083.52 480.924 1079.71L488.687 1095.56C490.07 1098.41 490.814 1102.58 491.851 1105.72C496.451 1119.65 495.121 1133.66 492.303 1147.88V1147.91Z" fill="black"/>
<path d="M362.266 1167.1C360.485 1182.22 353.626 1191.48 353.626 1191.48C352.323 1181.59 351.233 1142.82 351.233 1142.82C349.346 1122.67 355.62 1113.95 364.42 1098.05L374.576 1079.73C377.208 1095.23 376.144 1105.34 369.817 1118.84C365.483 1128.12 362.506 1136.79 362.426 1147.21L362.266 1167.1Z" fill="black"/>
<path d="M424.719 1155.08C424.639 1156.15 423.815 1157.69 423.31 1158.06C422.645 1158.54 420.651 1157.24 420.359 1156.23C414.138 1135.12 413.021 1120.81 421.555 1099.84C424.081 1093.59 425.995 1087.47 427.218 1080.75C429.318 1069.21 439.661 1093.99 431.552 1117.38C427.298 1129.67 425.49 1141.63 424.746 1155.06H424.719V1155.08Z" fill="black"/>
<path d="M705.334 1178.56C706.583 1182.97 709.614 1208.42 704.695 1210.65L687.175 1171.97C683.586 1164.07 685.58 1156.41 689.036 1149C691.775 1143.15 692.28 1134.69 696.401 1135.17C700.867 1135.65 696.055 1145.62 697.836 1152.03L705.307 1178.59L705.334 1178.56Z" fill="black"/>
<path d="M417.244 896.773C404.403 896.72 383.666 899.91 374.334 890.446C382.044 884.916 398.74 871.676 404.882 885.261C405.892 887.521 407.753 889.94 409.375 891.642C412.352 893.131 414.134 893.795 417.271 896.773H417.244Z" fill="black"/>
<path d="M289.421 920.945C288.703 926.395 290.644 931.287 287.932 934.716C287.613 935.115 286.576 933.361 286.523 932.882C285.858 926.289 285.034 919.27 284.024 912.65C282.535 902.973 282.482 893.402 285.964 884.203C288.729 876.785 292.345 869.952 297.875 863.917C298.433 863.306 299.577 866.31 299.204 867.134C296.625 873.01 294.924 879.975 294.047 886.489L289.421 920.945Z" fill="black"/>
<path d="M309.516 962.394C314.515 965.079 318.768 967.392 322.49 971.194L305.342 968.748C289.045 966.435 283.276 957.183 280.617 940.859L288.407 947.373C293.565 951.706 303.269 959.018 309.516 962.394Z" fill="black"/>
<path d="M375.081 929.664C377.315 932.003 379.282 933.997 381.01 936.523C369.87 933.917 363.57 925.649 360.459 915.653L354.53 896.723C354.344 896.085 354.45 894.862 354.61 894.357C354.77 893.852 356.524 894.543 357.029 894.969C369.286 905.257 362.32 918.497 375.081 929.69V929.664Z" fill="black"/>
<path d="M328.207 857.937C328.846 858.416 329.563 860.277 329.218 860.888C326.559 865.461 312.362 847.382 313.718 841.613C318.61 847.941 321.96 853.285 328.207 857.937Z" fill="black"/>
<path d="M334.832 870.849C339.086 863.325 341.585 862.82 342.834 865.399C344.164 868.137 334.247 879.569 334.353 885.843C334.54 894.378 341.691 901.529 342.25 908.176C342.808 914.822 340.495 925.483 344.483 932.13C349.481 940.478 356.766 946.513 365.752 949.571C371.867 951.644 370.112 952.495 368.171 952.734C363.465 953.319 352.113 952.734 343.951 942.791C336.294 933.433 333.184 926.627 335.39 918.066C337.145 911.18 333.955 899.323 330.312 893.101C326.697 886.88 331.163 877.256 334.805 870.849H334.832Z" fill="black"/>
<path d="M440.267 931.944C441.277 928.541 431.361 928.169 427.08 928.355C422.8 928.541 416.924 930.881 416.685 938.511C416.499 944.759 423.784 947.79 430.616 948.348C435.96 948.774 441.862 947.843 442.819 947.418C442.899 947.391 442.899 947.258 442.819 947.231C441.596 946.966 436.439 945.876 431.254 944.599C425.326 943.137 420.7 940.399 421.444 937.182C422.162 933.965 426.256 931.625 430.882 931.944C435.508 932.263 439.895 933.221 440.267 931.971V931.944Z" fill="black"/>
<path d="M1447.65 823.667C1441.96 823.667 1434.15 823.746 1428.3 826.804C1414.05 834.221 1400.51 841.612 1386.72 849.907C1377.6 855.384 1374.67 871.601 1360.66 883.299L1341.68 899.171C1336.97 903.106 1332.37 907.971 1330.01 913.741C1326.26 922.966 1325.67 933.202 1328.36 942.826C1329.21 945.857 1333.44 948.515 1335.19 950.935L1335.64 961.117C1335.88 966.355 1337.61 972.523 1341.55 976.192C1353.06 986.932 1371.08 983.104 1384.72 980.472C1392.14 979.036 1405.54 980.472 1412.98 983.583C1407.85 991.612 1403.78 997.833 1398.71 1004.77C1377.46 1033.75 1346.25 1045.48 1310.87 1046.06C1296.16 1046.33 1282.13 1045.79 1267.45 1044.15L1207.95 1037.34C1187.24 1034.97 1167.62 1032.74 1146.75 1032.9C1123.43 1033.09 1101.37 1035.61 1078.61 1040.74C1041.95 1048.98 1008.45 1064.91 978.83 1088.12C953.121 1108.25 929.912 1130.82 909.201 1156.1C905.665 1160.43 902.687 1164.93 899.976 1169.63C897.902 1173.22 896.014 1176.92 894.18 1180.69C894.871 1180.08 895.589 1179.5 896.28 1178.91C898.115 1181.62 899.736 1184.49 901.199 1187.47C902.475 1184.97 903.698 1182.87 904.761 1181.14C905.187 1181.14 905.612 1181.14 905.984 1181.2C912.312 1181.78 914.04 1188.51 916.752 1192.98C916.991 1193.37 918.373 1194.12 918.373 1193.83C918.373 1193.51 918.347 1192.82 918.267 1192.42L918.134 1183.38C917.443 1178.49 913.083 1172.42 909.52 1169.39C913.907 1163.6 917.655 1158.6 922.095 1153.87L936.08 1138.98C936.93 1136.45 940.785 1168.49 941.397 1159.66C942.487 1144.35 949.958 1143.31 944.667 1129.94C956.099 1118.43 967.717 1108.27 980.585 1098.2L982.127 1099.45C979.734 1109.26 977.262 1117.55 973.912 1126.83C976.544 1127.23 977.66 1125.13 979.096 1123.24C985.583 1114.71 997.441 1098.94 994.942 1088.2C1005.39 1080.86 1028.04 1068.39 1038.97 1064.67C1040.75 1064.06 1038.84 1076.08 1038.62 1077.33L1035.22 1098.89C1034.98 1100.43 1036.42 1103.35 1036.55 1104.9C1037.03 1112.02 1038.89 1137.06 1042.21 1141.69C1042.4 1141.93 1042.8 1141.82 1042.93 1141.53C1043.04 1141.27 1043.38 1139.83 1043.41 1139.14C1044.02 1114.52 1053.96 1077.59 1066.51 1055.13C1070.05 1053.98 1072.97 1053.24 1076.83 1052.57C1078.58 1059.88 1078.24 1065.97 1077.07 1072.99C1075.21 1084.05 1074.17 1095.24 1074.2 1106.46L1074.27 1123.4C1074.27 1127.15 1074.75 1131.88 1075.26 1135.1C1075.44 1136.16 1078.18 1137.2 1078.77 1136.51C1081.45 1133.26 1078.53 1126.11 1080.28 1114.01C1082.49 1098.62 1085.95 1084.21 1093.23 1070.39C1108.17 1042.07 1112.45 1044.46 1140.5 1042.79L1129.57 1083.73C1126.33 1096.79 1133.88 1139.16 1133.88 1139.16C1133.88 1139.16 1139.44 1110.85 1142.97 1096.81C1146.59 1082.38 1153.87 1069.16 1162.41 1057.09C1165.49 1052.73 1170.14 1043.72 1175.36 1042.76C1179.82 1041.94 1185.43 1044.7 1189.9 1045.18C1193.67 1045.58 1197 1045.05 1197.93 1049.14C1199.02 1053.9 1197.61 1062.57 1196.65 1067.22C1193.12 1084.45 1193.99 1100.91 1196.81 1118.27C1198.06 1125.87 1200.85 1139.54 1201.57 1139.86C1202.69 1140.41 1212.12 1089.82 1225.26 1067.7C1228.63 1061.96 1237.83 1057.17 1244.03 1054.43C1249.66 1051.94 1257.19 1053.56 1263.04 1054.86C1264.21 1055.02 1267.72 1054.83 1268.54 1055.82C1269.28 1056.72 1268.22 1060.68 1268.14 1061.75C1267.96 1064.14 1267.8 1066.5 1267.69 1068.92C1266.57 1090.06 1267.37 1111.25 1268.06 1132.39C1268.19 1136.16 1268.46 1139.94 1269.02 1143.68C1269.47 1146.74 1270.14 1150.12 1272.5 1152.19C1272.77 1152.43 1273.06 1152.67 1273.43 1152.67C1274.26 1152.72 1274.71 1151.71 1274.89 1150.92C1276.3 1144.88 1277.05 1138.71 1278.03 1132.6C1281.14 1113.08 1286.35 1093.86 1293.56 1075.41C1294.75 1072.33 1296.16 1069.35 1297.65 1066.4C1300.12 1061.56 1301.51 1059.06 1306.9 1057.63C1312.41 1056.19 1318.52 1056.72 1324.64 1056.06C1324.98 1056.06 1327.69 1060.15 1328.12 1060.76C1329.26 1062.44 1329.77 1063.9 1330.27 1065.92C1331.63 1071.16 1332.85 1076.5 1333.94 1081.82C1336.04 1092.29 1337.64 1102.87 1338.65 1113.54C1339.31 1120.29 1339.74 1127.07 1341.28 1133.66C1342.82 1140.26 1345.56 1146.74 1350.24 1151.63C1350.88 1152.3 1352.05 1152.91 1352.61 1152.17C1352.79 1151.9 1352.82 1151.53 1352.82 1151.18V1069.7C1352.82 1065.81 1353.38 1062.22 1354.39 1058.45C1354.95 1056.35 1356.46 1048.8 1358.51 1047.79L1374.91 1039.52C1373.48 1040.24 1382.33 1058.69 1383.42 1060.34C1387.65 1066.77 1391.47 1073.18 1394.98 1080.12C1402.19 1094.29 1409.39 1108.46 1416.6 1122.65C1416.04 1104.9 1412.08 1087.51 1407.4 1070.44C1405.33 1062.89 1402.56 1055.98 1400.06 1048.67C1398.76 1044.86 1397.54 1041.06 1396.42 1037.21C1395.99 1035.72 1392.56 1026.04 1393.52 1025.14C1400.17 1018.73 1405.51 1012.06 1410.7 1004.59C1426.49 1010.59 1428.83 1004.69 1448.56 1011.18C1460.17 1015.01 1470.04 1020.83 1478.17 1030.48L1477.43 1028.78L1466.79 1010.86C1465.86 1009.5 1464.93 1008.31 1463.98 1007.22C1463.98 1007.22 1461.61 1004.4 1456.96 1001.34C1452.76 998.604 1447.73 997.673 1442.84 996.769C1440.21 996.264 1437.55 995.786 1434.94 995.201C1434.01 994.988 1427.1 992.516 1426.78 992.808L1438.4 982.04C1458.74 979.834 1481.92 965.025 1489.74 945.91C1494.74 933.6 1498.14 920.334 1493.3 906.855C1490.72 919.51 1488.35 931.314 1481.58 941.949C1476.39 950.111 1470.33 956.73 1462.06 961.755C1447.49 970.582 1430.77 975.553 1413.7 972.709L1395.01 969.598C1384.96 967.897 1368.93 978.664 1355.1 974.596C1347.08 972.23 1341.31 965.291 1342.5 956.837C1356.59 964.946 1379.19 970.183 1391.26 956.411C1391.95 955.614 1392.27 953.301 1391.95 952.37C1391.61 951.44 1388.44 951.333 1387.54 951.918L1378.71 957.448C1366.01 961.117 1353.38 957.049 1343.78 948.648C1339.71 945.086 1335.94 941.151 1334.9 935.701L1356.59 923.577C1359.47 921.982 1361.96 919.909 1364.22 917.861L1363.77 916.399C1363.05 914.033 1354.55 920.44 1351.01 921.796C1346.6 923.498 1340.11 921.078 1336.63 918.42C1337.03 913.661 1340.32 909.434 1343.81 906.403L1366.51 886.543C1371.64 882.076 1375.26 876.36 1378.66 870.591L1383.84 861.844C1385.07 859.744 1391.53 852.326 1395.17 851.795C1409.37 849.721 1414.55 853.948 1427.74 854.666C1421.92 850.173 1416.6 847.7 1409.26 844.909L1410.4 843.739C1413.01 842.622 1416.76 839.459 1419.47 839.725C1429.76 840.735 1436.57 847.488 1446.64 850.971C1442.71 842.463 1434.49 838.369 1427.15 834.195L1432.13 832.972C1438.35 831.456 1443.74 830.738 1450.42 830.579L1469.56 830.207C1469.8 830.207 1471.5 831.111 1471.07 830.925C1467.67 833.264 1464.19 834.7 1464.24 839.406C1466.93 839.645 1470.28 839.299 1472.75 838.103L1493.03 828.186C1500.35 842.011 1493.06 856.793 1482.48 865.619C1481.63 866.311 1480.49 868.704 1481.28 869.288C1481.92 869.74 1483.54 869.767 1484.61 869.501C1493.14 867.268 1498.43 860.063 1501.28 851.874L1502.47 850.492C1517.04 870.884 1522.73 878.275 1525.04 903.292L1528.42 939.901C1529.59 952.742 1532.04 964.334 1534.88 977.68L1516.96 983.529C1513 984.805 1509.12 985.231 1504.68 984.992C1504.28 985.204 1503.4 985.656 1503.24 985.736L1508.88 989.591C1518.05 995.892 1524.94 994.004 1536.85 991.984C1537.43 991.877 1538.31 1016.82 1538.26 1019.05C1538.26 1020.03 1538.68 1024.42 1537.59 1024.76C1536.53 1025.11 1532.7 1021.97 1531.72 1021.39C1527.73 1019 1523.77 1016.6 1519.78 1014.21C1517.49 1012.83 1515.21 1011.47 1512.81 1010.3C1506.7 1007.35 1499.97 1005.89 1493.35 1004.45C1490.27 1003.79 1487.13 1003.12 1483.97 1003.26C1483.52 1004.82 1484.53 1006.42 1485.67 1007.64C1488.49 1010.73 1492.13 1012.83 1495.56 1015.19C1504.81 1021.52 1512.73 1029.58 1521.4 1036.65C1523.58 1038.43 1525.79 1040.16 1528.07 1041.78C1529.19 1042.55 1530.31 1043.32 1531.45 1044.04C1532.43 1044.65 1534.48 1045.34 1535.17 1046.25C1536.42 1047.87 1534.72 1052.25 1534.32 1054.17C1533.71 1057.36 1532.99 1060.55 1532.22 1063.69C1531.4 1066.9 1530.52 1070.15 1529.51 1073.31C1529.51 1073.31 1527.7 1066.82 1509.41 1052.07C1503.48 1047.28 1496.04 1043.4 1490.93 1041.01C1489.23 1040.24 1487.64 1042.18 1488.7 1043.69C1493.57 1050.69 1502.07 1063.21 1506.83 1072.59C1508.64 1076.18 1518.18 1096.25 1521.08 1099.21C1521.08 1099.21 1512.55 1121.49 1509.78 1121.72C1509.44 1115.02 1510.24 1101.25 1498.59 1083.95C1495.51 1079.4 1480.62 1068.55 1471.61 1062.07C1470.28 1061.11 1468.63 1062.68 1469.51 1064.06C1479.16 1079.56 1489.47 1090.59 1491.89 1109.52C1493.27 1120.37 1491.49 1131.35 1492.1 1135.1C1492.69 1138.71 1486.49 1134.91 1484.45 1140.89L1482.96 1140.65L1479.71 1137.7C1476.18 1134.51 1472.32 1146.24 1471.21 1149.29C1471.02 1148.98 1470.78 1148.52 1470.6 1148.18C1469.13 1117.52 1469.16 1088.86 1454.96 1061.16C1449.65 1050.74 1442.52 1042.02 1432.95 1035.56C1429.44 1033.19 1427.1 1028.99 1421.7 1029.5C1430.69 1038.14 1438.11 1046.35 1443.48 1057.15C1455.76 1081.92 1457.86 1104.44 1459.27 1131.8C1460.92 1163.78 1462.78 1203.64 1480.8 1230.83L1480.11 1231.76L1460.39 1229.05C1446.72 1227.17 1437.02 1217.51 1432.9 1220.84C1429.44 1223.63 1437.58 1241.55 1455.44 1246.07C1471.07 1250.03 1482.8 1249.47 1497.74 1256.46L1525.71 1297.38C1499.57 1301.82 1499.44 1307.93 1470.7 1309.34C1469.29 1309.4 1466.87 1310.7 1466.55 1311.79C1466.21 1312.91 1467.75 1315.06 1469.11 1315.62C1493.27 1325.88 1512.95 1316.28 1538.1 1319.15C1545.83 1334.33 1551.98 1349.94 1555.7 1366.34C1551.84 1364.64 1548.55 1362.91 1545.01 1362.09L1524.25 1357.15C1523.42 1356.96 1521.32 1358.13 1520.58 1359.09C1525.58 1363.85 1530.84 1367.09 1536.64 1370.54C1546.05 1376.18 1549.88 1385.96 1560.51 1390.03C1562.8 1412.02 1565.61 1425.21 1556.52 1446.71L1543.79 1441.85L1547.32 1431.88C1550.97 1421.7 1547.24 1408.3 1540.76 1397.24C1537.3 1409.15 1539.48 1425.6 1532.91 1436.03C1521.64 1429.14 1514.28 1423.64 1510.42 1411.33C1502.21 1385.06 1514.83 1367.54 1502.15 1366.08L1496.12 1357.22L1513.03 1349.33C1514.38 1348.69 1516.22 1346.32 1516.11 1345.05C1515.98 1343.91 1514.25 1341.83 1513.03 1341.49C1500.96 1338.11 1488.91 1337.74 1477.03 1340.37L1433.59 1306.9C1432.66 1306.21 1431.67 1304.9 1430.88 1303.81C1439.06 1299.21 1446.93 1295.55 1455.81 1292.97L1474.21 1287.6C1475.33 1287.28 1476.74 1285.44 1476.79 1284.49C1476.84 1283.55 1474.98 1281.96 1473.81 1281.8C1453.66 1279.3 1434.92 1275.76 1418.81 1291.18C1408.86 1278.4 1406.84 1260.03 1404.37 1244.26C1402.14 1230.04 1398.47 1216.66 1393.42 1203.26C1390.49 1195.53 1389.03 1187.79 1383.63 1180.51C1384.32 1189.79 1386.85 1196.86 1388.63 1205.79C1390.97 1217.46 1392.3 1234.08 1392.96 1244.5C1393.02 1245.27 1391.18 1246.95 1391.1 1246.49L1390.78 1244.07C1390.38 1240.78 1390.78 1236.12 1388.58 1233.76C1385.94 1230.94 1382.65 1233.41 1378.66 1234.21V1227.03C1378.69 1225.57 1377.6 1222.19 1376.19 1221.82C1374.94 1221.5 1372.47 1221.77 1370.52 1222.01C1371.54 1213.05 1371.35 1204.27 1369.01 1195.53L1362.23 1170.19C1356.62 1177.02 1356.49 1184.36 1355.42 1192.1C1355.05 1194.76 1351.3 1199.14 1348.72 1199.86C1343.54 1201.3 1338.25 1202.79 1334.13 1205.9C1324.26 1213.37 1316.79 1197.23 1301.51 1197.71H1289.06C1288.03 1189.68 1288.51 1176.39 1288.53 1170.56C1288.67 1156.53 1283.51 1144.69 1283.51 1144.69L1269.52 1194.97C1265.59 1191.91 1261.6 1193.27 1258.41 1196.17C1255.7 1197.04 1252.03 1189.49 1248.41 1189.92C1246.63 1190.13 1244.32 1191.17 1242.11 1192.12C1241.29 1174.71 1241.98 1157.78 1242.72 1140.44L1243.74 1116.86C1243.79 1115.88 1242.35 1114.09 1241.58 1114.23C1240.97 1114.33 1239.38 1115.21 1239.14 1115.85C1234.08 1128.26 1229.11 1140.95 1224.67 1153.92C1221.59 1162.91 1219.33 1174.23 1217.57 1182.61C1217.47 1183.09 1216.54 1184.36 1216.38 1184.2L1215.61 1183.48C1214.36 1182.31 1212.12 1179.84 1210.53 1179.82C1206.67 1179.71 1201.76 1179.95 1199.31 1177.32L1191.81 1169.34C1184.47 1148.02 1168.82 1105.75 1153.16 1091.07C1152.6 1090.54 1150.31 1090.01 1149.99 1090.57C1148.4 1093.38 1154.38 1105.69 1156.16 1109.79C1163.44 1126.46 1171.9 1149.67 1178.15 1167.13C1178.15 1167.13 1168.36 1186.59 1158.21 1193.03C1135.37 1207.52 1114.34 1224.75 1112.82 1233.12C1120.19 1234.61 1136.17 1224.85 1146.19 1218.74C1153.18 1214.51 1169.72 1209.51 1169.72 1209.51C1178.81 1205.87 1185.09 1203.56 1188.06 1193.4C1190.06 1201.08 1192.61 1216.29 1196.04 1234.18L1187.27 1236.28C1168.34 1240.83 1155.44 1234.72 1138.48 1244.79C1147.6 1243.68 1155.12 1244.31 1163.74 1245.8C1175.38 1247.8 1186.65 1248.3 1198.57 1249.34L1201.36 1273.35C1187.98 1271.14 1174.32 1270.05 1161.64 1276.48C1171.47 1278.64 1179.1 1279.83 1186.44 1285.26C1191.41 1288.95 1197.08 1290.89 1203.01 1292.27L1203.54 1306.1C1190.51 1308.12 1193.33 1311.63 1178.28 1314.16C1173.81 1314.9 1170.3 1314.47 1164.83 1314.31L1172.56 1318.75C1181.52 1323.91 1191.73 1320.22 1204.04 1322.29V1362.86C1197 1363.31 1190.88 1363.95 1184.39 1366.93C1191.95 1368.95 1199.47 1370.62 1204.68 1376.07C1206.78 1400.77 1218.66 1421.75 1235.33 1439.72C1240.01 1444.77 1254.16 1454.58 1251.55 1445.73L1249.82 1439.85C1260.83 1448.2 1278.22 1458.89 1279.23 1473.81L1271.7 1474.82C1263.28 1466.87 1254.95 1460.11 1245.49 1453.33C1244.19 1452.4 1241.02 1452.72 1240.15 1453.76C1239.24 1454.82 1239.43 1458.15 1240.41 1459.26C1245.81 1465.51 1250.51 1470.88 1254.82 1478.03C1244.83 1478.75 1235.47 1481.2 1226.03 1478.4C1221.59 1477.1 1217.76 1472.24 1214.12 1469.29C1216.32 1452.4 1213.05 1443.02 1211.03 1426.43C1210.9 1425.37 1209.39 1423.45 1208.43 1423.45C1207.42 1423.45 1205.82 1425.18 1205.58 1426.19L1201.6 1442.81L1199.07 1454.53C1185.86 1441.88 1175.52 1427.28 1167.94 1410.98C1171.13 1407.98 1173.47 1404.92 1175.81 1401.49C1178.79 1397.16 1184.18 1397.69 1189.1 1394.26C1179.48 1393.06 1170.41 1394.63 1161.48 1396.92L1147.01 1356.64C1160.97 1352.57 1172.99 1354.06 1185.94 1347.04C1174.64 1346.14 1165.28 1346.19 1155.07 1343.99C1150.98 1343.08 1146.22 1343.29 1142.36 1343.51L1132.79 1320.86L1150.13 1321.33C1142.07 1314.93 1135.8 1310.67 1126.41 1308.31L1114.5 1288.98C1116.79 1288.34 1120.99 1288.07 1122.74 1289.19C1123.57 1290.65 1124.84 1292.99 1125.93 1292.86C1127.05 1292.7 1129.07 1291.53 1130.24 1290.84L1147.76 1292.59C1150.84 1292.91 1153.05 1292.78 1155.71 1291.5L1148.9 1287.09C1139.86 1281.24 1130.77 1277.41 1120.08 1275.15C1114.79 1274.04 1109.98 1272.34 1104.69 1274.04L1101.29 1266.22C1096.69 1255.67 1092.89 1245.83 1090.92 1234.69C1090.44 1231.9 1089.35 1228.02 1088.39 1225.52C1087.99 1224.51 1084.11 1224.53 1083.82 1225.6L1081.53 1234.13C1077.36 1224.11 1076.22 1213.31 1076.77 1202.55L1077.25 1193.37C1077.31 1192.6 1074.81 1190.98 1074.27 1191.49L1069.06 1196.46C1067.58 1189.36 1066.38 1182.31 1065.82 1174.68C1065.63 1172.16 1063.53 1169.39 1061.19 1169.31C1059.23 1169.23 1056.67 1170.48 1054.79 1171.71C1054.23 1172.13 1053.17 1173.49 1053.01 1173.01C1052.85 1172.53 1052.18 1170.72 1052.18 1170.19V1158.41C1052.23 1156.34 1050.83 1153.73 1049.2 1153.34C1047.72 1152.96 1045 1153.89 1044.13 1154.93L1040.19 1159.53L1036.47 1138.74C1035.86 1135.36 1033.28 1133.74 1029.96 1134.06C1028.49 1121.09 1027.46 1108.09 1024.88 1095.24C1023.31 1087.4 1016.61 1083.47 1015.44 1086.31L1011.11 1096.65C1008.26 1103.51 1007.2 1111.38 1002.89 1117.39C994.436 1129.09 982.526 1137.3 971.519 1146.29C971.174 1146.61 969.977 1147.11 969.552 1147.27C969.286 1147.38 968.86 1146.45 968.621 1146L962.799 1135.87C962.533 1135.42 961.097 1134.38 961.044 1134.86L960.778 1137.28C960.247 1142.41 959.343 1147.46 959.236 1152.4C959.183 1155.44 959.263 1156.39 957.083 1158.41C950.622 1164.45 945.571 1171.02 940.147 1178.57C936.372 1175.61 932.677 1172.08 929.938 1167.96C929.646 1167.53 928.742 1166.52 928.662 1166.89C928.556 1167.24 928.184 1168.52 928.237 1168.86L928.955 1174.74C929.566 1179.9 931.48 1185.08 933.394 1189.52L922.893 1212.86L917.602 1209.38L910.424 1204.65C910.025 1204.38 908.829 1204.46 907.951 1204.59C908.855 1207.28 909.653 1210.02 910.451 1212.76C910.344 1212.86 910.211 1212.97 910.132 1213.05C913.003 1218.18 915.954 1223.87 918.134 1228.97C918.134 1228.97 916.14 1257.21 919.304 1280.15C919.782 1283.74 920.341 1287.14 920.979 1290.33C926.269 1318.44 935.016 1331.57 934.006 1332.37L925.179 1339.7C924.435 1340.32 923.77 1342.55 924.196 1343.27C925.738 1345.95 931.055 1343.11 940.227 1344.38L947.113 1345.34C953.095 1351.27 959.555 1356.19 966.76 1360.92C963.304 1363.31 952.856 1369.96 957.109 1374.13C957.854 1374.88 959.981 1375.22 961.23 1375.06L981.648 1372.3L989.385 1371.26C992.602 1372.65 1011.53 1375.94 1011.08 1376.55L1010.36 1377.54L1007.92 1380.99C1007.12 1382.11 1002.2 1390.62 1004.65 1393.17L1023.87 1384.13C1026.92 1382.69 1029.69 1379.19 1031.79 1376.66L1049.74 1370.41C1049.98 1372.54 1048.06 1387.4 1052.98 1386.15C1068.11 1373.6 1063.8 1357.07 1065.82 1353.48L1070.61 1345.08C1070.77 1344.84 1071.3 1344.17 1071.32 1344.17C1071.35 1344.22 1071.94 1345.18 1072.15 1345.45L1084.43 1362.78C1085.84 1364.78 1088.95 1363.82 1089 1361.37C1089.59 1340.37 1088.68 1344.14 1083.93 1326.04C1083.79 1325.56 1083.23 1323.62 1083.66 1323.75L1085.49 1324.36C1093.58 1327.08 1099.56 1334.33 1099.4 1343.51C1099.16 1354.57 1094.61 1365.55 1088.58 1374.88C1084.62 1374.32 1071.22 1370.73 1069.28 1373.2C1066.91 1376.21 1076.19 1383.31 1078.85 1385.59C1067.87 1394.92 1054.63 1400.75 1040.22 1403.06L1035.38 1387.67C1035.11 1386.87 1032.88 1385.59 1032.43 1386.1C1029.64 1389.34 1024.16 1399.23 1022.46 1404.28C1012.14 1404.2 1001.83 1403.17 991.751 1399.82C986.886 1394.98 987.577 1381.58 985.424 1380.91C982.446 1379.98 972.981 1388.07 970.296 1391.57C959.316 1386.07 948.894 1378.95 940.014 1370.76C943.683 1366.24 946.103 1362.25 947.592 1357.01C947.99 1355.5 945.146 1352.76 943.71 1353.29L927.067 1360.5C918.214 1353.29 913.614 1345.82 908.51 1337.5C910.265 1333.48 915.715 1329.55 919.676 1328.41C920.66 1328.11 921.989 1325.03 920.952 1324.52C918.161 1323.25 913.668 1321.89 909.626 1320.78C904.947 1319.5 900.88 1318.6 900.88 1318.6C900.64 1318.12 900.454 1317.64 900.215 1317.13L898.434 1320.48C895.802 1320.54 893.143 1320.75 890.511 1321.17C893.409 1327.45 896.466 1333.62 899.976 1339.52C902.554 1343.93 905.399 1348.19 908.536 1352.25C911.168 1355.66 910.77 1356.83 910.53 1361.08C908.909 1390.27 913.854 1419.46 922.973 1447.25C925.126 1453.84 928.104 1459.58 931.347 1465.3C934.511 1470.93 939.616 1473.7 945.917 1475.11C963.57 1479.1 981.383 1481.78 999.541 1481.65C1005.52 1481.6 1011.72 1478.75 1013.37 1473.09C1014.7 1468.54 1013.21 1463.49 1011.85 1459.05C1008.23 1447.19 1000.58 1437.49 989.119 1432.54L972.264 1425.26C964.474 1421.91 966.627 1410.29 966.096 1402.53C998.079 1418.32 1039.18 1421.09 1069.97 1404.07C1096.53 1389.39 1106.1 1368.39 1111.42 1339.6C1111.97 1336.51 1110.06 1333.94 1108.89 1331.44C1103.94 1320.88 1094.11 1313.49 1082.09 1313.62C1077.68 1313.7 1075.66 1316.26 1073.93 1319.63C1068.69 1329.89 1063.29 1339.73 1057.18 1349.36C1040.51 1375.68 1007.89 1369.99 983.297 1359.14C988.401 1356.77 993.08 1354.54 997.201 1350.74L1052.1 1300.3C1063.8 1289.56 1074.17 1278.42 1084.35 1266.54L1096.02 1281.35C1111.6 1301.15 1122.1 1323.97 1130.8 1347.65L1143.85 1383.17C1159.06 1424.57 1173.95 1453.04 1210.58 1479.71C1219.01 1485.85 1227.78 1489.54 1238.63 1488.93C1250.75 1488.27 1262.58 1486.78 1274.65 1484.49C1278.62 1483.75 1283.64 1481.33 1285.4 1477.61C1288.27 1471.49 1286.59 1464.26 1283.43 1458.55C1274.92 1443.13 1249.72 1429.43 1234.8 1419.78C1221.99 1404.1 1215.87 1385.41 1215.74 1365.09L1215.39 1312.29C1215.18 1280.63 1211.65 1250.06 1204.97 1218.29C1226.67 1230.54 1254.95 1235.43 1279.44 1236.34C1283.22 1236.5 1287.02 1237.51 1290.15 1239.45C1299.62 1245.43 1309.86 1247.58 1321.1 1247.4L1349.26 1244.05C1339.84 1276.08 1331.9 1307.96 1325.86 1341.01C1320.38 1371.1 1317.99 1400.69 1318.79 1431.11C1319.08 1441.37 1319.98 1450.99 1320.97 1461.12C1321.69 1468.49 1325.62 1473.75 1333.25 1475.77C1354.36 1481.38 1376.75 1481.75 1398.39 1477.31C1402.11 1476.54 1406.63 1475.21 1409.07 1472.69C1411.73 1469.95 1411.97 1465.09 1411.79 1461.58C1405.7 1445.17 1388.71 1435.57 1373.24 1429.3C1374.25 1414.39 1377.41 1400.45 1381.4 1386.1C1387.78 1362.97 1396.37 1341.22 1408.6 1320.72C1411.52 1315.83 1413.81 1311.5 1416.76 1305.91L1470.41 1345.77C1479.16 1352.25 1495.83 1367.86 1496.46 1378.79C1497.82 1402.02 1497.29 1427.55 1520.63 1442.06C1530.36 1448.1 1540.6 1452.72 1551.87 1455.73C1555.78 1456.76 1562.16 1455.35 1564.05 1451.5C1568.43 1442.57 1569.92 1433 1570.08 1422.81C1570.77 1375.36 1557.43 1329.04 1530.47 1290.25V1289.99L1500.11 1246.31C1493.43 1236.71 1487.66 1227.51 1482.51 1216.53C1487.9 1197.92 1494.97 1180.53 1503.43 1162.99L1524.75 1118.75C1537.03 1093.28 1544.96 1066.64 1548.36 1038.54C1551.6 1011.66 1549 985.284 1542.22 959.23C1539.51 948.834 1538.36 939.37 1537.43 928.709C1536.42 916.984 1533.71 905.552 1531.88 893.881C1529.78 880.72 1521.85 862.19 1513.53 851.742L1504.31 840.123C1503.77 834.992 1503.4 830.313 1501.01 826.086C1493.78 814.76 1487.42 821.274 1475.73 823.667M988.428 1151.39C970.243 1186.36 981.595 1219.22 969.924 1258.54C963.224 1281.08 951.898 1293.58 935.069 1309.74C928.609 1295.17 925.498 1280.47 924.887 1265.66C924.701 1260.82 924.754 1255.93 925.073 1251.09C925.206 1249.02 925.392 1246.92 925.578 1244.85C927.732 1223.87 935.654 1204.57 946.475 1186.75C954.025 1174.31 963.703 1164.55 975.161 1155.86L991.964 1143.15C991.113 1145.63 989.943 1148.5 988.401 1151.39H988.428ZM884.848 1255.51C884.848 1253.06 884.928 1250.61 885.034 1248.22H884.981C884.875 1247.77 884.582 1246.49 884.476 1245.86L881.95 1228.6C881.392 1225.97 880.515 1222.94 879.451 1219.83C876.925 1230.04 875.383 1240.51 874.985 1251.12C874.878 1253.83 874.825 1256.57 874.878 1259.31C874.905 1261.43 875.011 1263.54 875.171 1265.66C875.835 1275.82 877.75 1285.65 880.621 1295.25C882.854 1286.03 883.997 1277.31 884.901 1267.82L885.672 1266.81C885.141 1262.87 884.875 1259.07 884.875 1255.53H884.848V1255.51ZM892.08 1294.96L881.046 1296.08C880.94 1295.89 880.727 1295.52 880.647 1295.36C881.924 1299.61 883.359 1303.79 884.981 1307.93C888.411 1305.97 891.814 1304 894.419 1302.06C893.622 1299.77 892.851 1297.41 892.106 1294.99H892.08V1294.96Z" fill="black"/>
<path d="M1307.75 1147.91C1310.17 1160.16 1308.92 1182.55 1311.66 1185.29C1312.27 1185.9 1314.56 1184.7 1314.93 1183.83C1323.2 1163.09 1329.26 1147.48 1323.57 1124.67C1320.67 1113.05 1319.58 1101.81 1320.27 1089.74C1320.46 1086.44 1320.35 1083.52 1319.1 1079.71L1311.34 1095.56C1309.96 1098.41 1309.21 1102.58 1308.18 1105.72C1303.58 1119.65 1304.91 1133.66 1307.73 1147.88H1307.75V1147.91Z" fill="black"/>
<path d="M1437.78 1167.1C1439.57 1182.22 1446.42 1191.48 1446.42 1191.48C1447.73 1181.59 1448.82 1142.82 1448.82 1142.82C1450.71 1122.67 1444.43 1113.95 1435.63 1098.05L1425.47 1079.73C1422.84 1095.23 1423.91 1105.34 1430.23 1118.84C1434.57 1128.12 1437.55 1136.79 1437.62 1147.21L1437.78 1167.1Z" fill="black"/>
<path d="M1375.36 1155.08C1375.44 1156.15 1376.26 1157.69 1376.77 1158.06C1377.43 1158.54 1379.43 1157.24 1379.72 1156.23C1385.91 1135.12 1387.06 1120.81 1378.52 1099.84C1376 1093.59 1374.08 1087.47 1372.86 1080.75C1370.76 1069.21 1360.42 1093.99 1368.53 1117.38C1372.78 1129.67 1374.59 1141.63 1375.33 1155.06H1375.36V1155.08Z" fill="black"/>
<path d="M1094.74 1178.56C1093.49 1182.97 1090.46 1208.42 1095.38 1210.65L1112.9 1171.97C1116.49 1164.07 1114.5 1156.41 1111.04 1149C1108.3 1143.15 1107.8 1134.69 1103.67 1135.17C1099.21 1135.65 1104.02 1145.62 1102.24 1152.03L1094.77 1178.59H1094.74V1178.56Z" fill="black"/>
<path d="M1382.8 896.773C1395.64 896.72 1416.38 899.91 1425.71 890.446C1418 884.916 1401.31 871.676 1395.19 885.261C1394.18 887.521 1392.32 889.94 1390.7 891.642C1387.72 893.131 1385.94 893.795 1382.8 896.773Z" fill="black"/>
<path d="M1510.63 920.945C1511.35 926.395 1509.41 931.287 1512.12 934.716C1512.44 935.115 1513.48 933.361 1513.53 932.882C1514.17 926.289 1515.02 919.27 1516.03 912.65C1517.52 902.973 1517.57 893.402 1514.09 884.203C1511.32 876.785 1507.71 869.952 1502.18 863.917C1501.62 863.306 1500.48 866.31 1500.85 867.134C1503.43 873.01 1505.13 879.975 1506.01 886.489L1510.63 920.945Z" fill="black"/>
<path d="M1490.53 962.394C1485.53 965.079 1481.28 967.392 1477.55 971.194L1494.68 968.748C1510.97 966.435 1516.74 957.183 1519.4 940.859L1511.58 947.373C1506.43 951.706 1496.72 959.018 1490.48 962.394H1490.53Z" fill="black"/>
<path d="M1424.97 929.664C1422.74 932.003 1420.77 933.997 1419.04 936.523C1430.18 933.917 1436.48 925.649 1439.59 915.653L1445.5 896.723C1445.68 896.085 1445.58 894.862 1445.42 894.357C1445.26 893.852 1443.5 894.543 1443 894.969C1430.74 905.257 1437.71 918.497 1424.95 929.69H1424.97V929.664Z" fill="black"/>
<path d="M1471.87 857.937C1471.23 858.416 1470.51 860.277 1470.86 860.888C1473.52 865.461 1487.71 847.382 1486.36 841.613C1481.47 847.941 1478.12 853.285 1471.87 857.937Z" fill="black"/>
<path d="M1465.22 870.88C1460.96 863.356 1458.47 862.851 1457.22 865.43C1455.89 868.168 1465.8 879.6 1465.7 885.875C1465.51 894.409 1458.36 901.56 1457.8 908.207C1457.24 914.854 1459.56 925.515 1455.57 932.161C1450.57 940.509 1443.28 946.544 1434.3 949.602C1428.18 951.675 1429.94 952.5 1431.88 952.765C1436.58 953.35 1447.94 952.765 1456.1 942.822C1463.76 933.464 1466.87 926.658 1464.66 918.097C1462.91 911.211 1466.12 899.354 1469.74 893.133C1473.35 886.911 1468.89 877.287 1465.24 870.88H1465.22Z" fill="black"/>
<path d="M1359.75 931.944C1358.74 928.541 1368.66 928.169 1372.94 928.355C1377.22 928.541 1383.1 930.881 1383.34 938.511C1383.52 944.759 1376.24 947.79 1369.41 948.348C1364.06 948.774 1358.16 947.843 1357.2 947.418C1357.12 947.391 1357.12 947.258 1357.2 947.231C1358.43 946.966 1363.58 945.876 1368.77 944.599C1374.7 943.137 1379.32 940.399 1378.58 937.182C1377.86 933.965 1373.77 931.625 1369.14 931.944C1364.51 932.263 1360.13 933.221 1359.75 931.971V931.944Z" fill="black"/>
<path d="M876.498 1219.04C882.374 1213.91 887 1207.88 889.313 1204.58C890.03 1203.57 891.572 1203.89 891.838 1205.11C892.423 1207.69 891.147 1213.46 889.738 1217.5C887.292 1224.36 880.619 1230.18 880.619 1230.18L876.498 1219.04Z" fill="black"/>
</svg>
