<svg width="1800" height="1800" viewBox="0 0 1800 1800" fill="none" xmlns="http://www.w3.org/2000/svg">
<rect width="1800" height="1800" fill="black"/>
<path d="M563.473 538.497C560.321 544.09 555.108 546.633 545.245 543.342C550.195 555.015 548.912 566.009 544.223 574.328C539.13 583.364 529.909 584.971 522.164 580.605C512.554 575.189 508.329 565.248 516.155 527.892L505.622 521.766C490.804 512.848 482.866 513.854 479.148 520.452C474.621 528.484 480.186 533.7 486.512 539.911C493.188 546.509 492.951 551.289 491.334 554.158C489.798 556.883 485.475 557.848 481.459 555.584C472.136 550.33 469.559 532.435 478.128 517.232C486.212 502.889 495.355 498.403 510.889 507.726C518.41 512.154 527.428 517.614 537.549 523.129C555.415 533.01 558.132 533.219 560.234 529.489C561.204 527.768 561.233 525.706 560.49 524.342L562.096 523.168C565.966 528.373 566.707 532.76 563.473 538.497ZM525.478 564.33C532.363 568.21 538.606 567.193 542.163 560.882C544.992 555.862 545.42 548.733 542.502 542.174C539.534 541.068 536.441 539.514 532.855 537.493L518.45 529.185C513.92 550.634 516.729 559.399 525.478 564.33ZM590.348 501.744C583.084 510.903 573.018 514.058 556.377 500.861L514.065 467.305L509.154 473.497L507.864 472.474C508.54 462.084 507.054 451.239 503.312 442.178L504.825 441.066L521.208 454.059C524.482 449.931 531.385 440.696 534.454 436.826L537.292 439.076C534.939 442.043 526.852 451.18 523.272 455.695L561.198 485.772C576.033 497.537 583.23 496.941 588.448 490.362C590.903 487.266 591.606 483.2 591.365 481.118L593.447 480.878C596.045 487.141 595.463 495.294 590.348 501.744ZM632.583 458.827C617.203 472.993 593.269 471.311 576.092 452.662C556.906 431.833 558.353 410.802 574.217 396.19C587.901 383.586 605.786 385.019 617.721 397.977L617.906 399.15L580.607 433.505C581.936 435.191 583.386 436.765 584.948 438.461C601.345 456.262 619.163 459.325 631.999 447.501C638.781 441.255 641.266 431.802 640.409 424.31L642.633 424.052C646.155 437.596 642.997 449.234 632.583 458.827ZM578.832 431.335L605.232 407.019C593.175 394.172 582.187 392.206 574.921 398.899C566.565 406.596 568.219 417.383 578.832 431.335ZM658.06 430.801C663.375 426.021 664.394 420.763 662.09 417.352L606.809 335.483C603.585 330.708 599.197 330.094 592.736 334.059L591.631 332.422L606.993 312.513L609.139 312.455L674.371 409.06C676.766 412.608 682.297 413.443 688.761 410.071L689.867 411.708L659.166 432.439L658.06 430.801ZM694.49 406.431C700.289 402.251 701.869 397.134 699.947 393.494L675.726 347.635C673.804 343.996 669.774 341.655 662.119 345.14L661.196 343.393L677.154 322.489L679.294 322.663L713.049 386.574C715.048 390.359 720.456 391.785 727.247 389.13L728.169 390.877L695.413 408.178L694.49 406.431ZM652.276 309.934C649.816 305.275 651.747 299.414 656.26 297.03C660.919 294.57 666.703 296.356 669.164 301.015C671.624 305.673 669.838 311.458 665.18 313.918C660.667 316.302 654.737 314.593 652.276 309.934ZM771.548 376.86C751.801 383.735 730.514 372.667 722.177 348.722C712.866 321.978 722.563 303.26 742.932 296.169C760.502 290.052 776.339 298.485 782.131 315.122L781.834 316.271L733.943 332.945C734.492 335.02 735.195 337.042 735.953 339.218C743.911 362.075 759.038 371.976 775.52 366.237C784.227 363.206 790.27 355.524 792.465 348.309L794.608 348.957C792.449 362.784 784.92 372.205 771.548 376.86ZM733.179 330.247L767.075 318.446C761.127 301.863 751.829 295.686 742.5 298.934C731.771 302.669 728.995 313.224 733.179 330.247ZM806.142 361.332C812.99 359.281 816.158 354.964 815.533 350.895L807.788 300.447C806.663 293.124 802.571 289.255 795.248 290.38L794.948 288.427L816.92 276.392L818.885 277.256L821.584 294.831C827.545 283.755 836.173 273.769 844.31 272.519C850.494 271.57 856.063 274.213 856.988 280.234C857.662 284.628 854.882 288.219 850.163 288.944C844.793 289.769 842.541 285.95 834.892 287.124C830.336 287.824 825.84 292.179 822.409 298.036L830.179 348.647C830.829 352.878 835.472 355.996 846.012 355.21L846.312 357.163L806.442 363.285L806.142 361.332ZM1018.51 324.334C1022.62 302.157 1018.21 296.147 1008.66 294.375C1002.35 293.203 994.253 296.222 990.281 303.188C989.902 306.132 989.403 309.723 988.773 313.122L980.992 355.049C980.211 359.258 983.567 363.732 990.539 365.863L990.179 367.806L953.756 361.046L954.117 359.104C961.258 359.424 965.672 356.392 966.423 352.345L973.182 315.923C977.298 293.745 972.887 287.736 963.336 285.963C957.185 284.822 949.635 287.607 945.46 293.865L935.666 346.637C934.885 350.846 938.241 355.32 945.213 357.451L944.853 359.394L908.43 352.635L908.791 350.692C915.932 351.013 920.346 347.98 921.097 343.933L930.41 293.751C931.762 286.467 929.173 281.465 921.889 280.113L922.249 278.171L946.96 274.049L948.53 275.513L945.917 289.596L946.019 289.95C952.839 281.168 963.735 277.497 971.344 278.909C982.189 280.922 989.25 287.088 989.791 300.418C996.558 290.119 1008.58 285.819 1016.67 287.321C1030.59 289.904 1038.24 299.195 1034.1 321.534L1026.32 363.461C1025.54 367.669 1028.89 372.144 1035.86 374.275L1035.5 376.217L999.082 369.458L999.442 367.515C1006.58 367.836 1011 364.804 1011.75 360.757L1018.51 324.334ZM1092.28 403.243C1086.47 400.516 1083.54 395.507 1086.09 385.426C1074.82 391.233 1063.76 390.773 1055.11 386.717C1045.72 382.312 1043.43 373.236 1047.21 365.187C1051.89 355.201 1061.49 350.247 1099.33 355.266L1104.65 344.305C1112.44 328.864 1110.85 321.023 1103.99 317.807C1095.64 313.891 1090.86 319.829 1085.13 326.601C1079.05 333.751 1074.27 333.87 1071.29 332.472C1068.45 331.143 1067.17 326.904 1069.13 322.73C1073.67 313.042 1091.33 309.138 1107.12 316.55C1122.03 323.542 1127.19 332.325 1119.05 348.512C1115.19 356.342 1110.42 365.741 1105.67 376.245C1097.15 394.798 1097.15 397.523 1101.02 399.341C1102.81 400.181 1104.87 400.055 1106.17 399.213L1107.46 400.727C1102.56 404.974 1098.24 406.04 1092.28 403.243ZM1063.69 367.279C1060.33 374.434 1061.81 380.584 1068.37 383.66C1073.59 386.108 1080.73 386.003 1087.05 382.604C1087.93 379.562 1089.25 376.362 1091 372.635L1098.21 357.65C1076.48 354.733 1067.95 358.187 1063.69 367.279ZM1088.93 442.48C1083.76 438.676 1082.28 432.071 1085.6 427.561C1088.33 423.848 1092.54 422.854 1096.12 425.488C1101.16 429.195 1099.41 436.291 1103.92 439.608C1108.16 442.73 1119.65 438.507 1135.11 429.439L1153.16 355.443C1154.46 350.063 1152.77 345.962 1149.15 342.275L1150.32 340.684L1181.22 363.414L1180.05 365.006C1172.51 361.091 1168.23 361.625 1166.54 367.535L1151.91 419.931C1167.3 410.403 1181.03 403.129 1195.72 392.06C1200.88 388.094 1201.66 383.147 1195.7 376.518L1196.87 374.926L1219.95 391.901L1218.88 393.36C1213.42 390.776 1207.56 390.962 1198.45 396.118C1182.63 405.123 1165.53 415.029 1148.6 425.263C1120.34 442.287 1100.47 450.968 1088.93 442.48ZM1249.3 472.77C1265.18 459.159 1264.48 450.592 1257.35 442.399C1252.7 437.061 1243.94 433.774 1237.02 435.866L1196.56 471.123C1193.33 473.934 1193.18 479.525 1197.31 485.528L1195.82 486.826L1171.49 458.895L1172.98 457.597C1178.38 462.286 1183.72 462.654 1186.82 459.95L1225.31 426.424C1230.89 421.557 1231.97 416.03 1227.11 410.444L1228.6 409.146L1250.52 421.274L1250.84 423.397L1239.66 433.13C1249.98 430.69 1261.3 434.152 1268 441.849C1278.06 453.394 1279.26 466.546 1262.02 481.347L1229.15 509.542C1226.5 512.51 1226.49 517.76 1230.41 523.515L1228.92 524.813L1204.58 496.881L1206.07 495.584C1211.47 500.273 1216.81 500.64 1219.92 497.937L1249.3 472.77ZM1248.21 562.339C1237.99 544.096 1245.18 521.203 1267.3 508.813C1292 494.974 1312.13 501.253 1322.67 520.07C1331.76 536.302 1326.22 553.368 1310.85 561.977L1309.67 561.885L1284.89 517.643C1282.94 518.545 1281.07 519.591 1279.06 520.717C1257.94 532.545 1250.84 549.169 1259.37 564.395C1263.87 572.439 1272.49 577.046 1279.98 577.948L1279.71 580.172C1265.72 580.46 1255.13 574.692 1248.21 562.339ZM1287.41 516.419L1304.95 547.733C1320.24 538.98 1324.7 528.746 1319.87 520.128C1314.32 510.216 1303.44 509.327 1287.41 516.419Z" fill="white"/>
<path d="M1235.61 1261.98C1238.77 1256.39 1243.98 1253.84 1253.84 1257.13C1248.89 1245.46 1250.18 1234.47 1254.86 1226.15C1259.96 1217.11 1269.18 1215.51 1276.92 1219.87C1286.53 1225.29 1290.76 1235.23 1282.93 1272.58L1293.47 1278.71C1308.28 1287.63 1316.22 1286.62 1319.94 1280.02C1324.47 1271.99 1318.9 1266.78 1312.58 1260.56C1305.9 1253.97 1306.14 1249.19 1307.75 1246.32C1309.29 1243.59 1313.61 1242.63 1317.63 1244.89C1326.95 1250.15 1329.53 1268.04 1320.96 1283.24C1312.88 1297.59 1303.73 1302.07 1288.2 1292.75C1280.68 1288.32 1271.66 1282.86 1261.54 1277.35C1243.67 1267.47 1240.96 1267.26 1238.85 1270.99C1237.88 1272.71 1237.85 1274.77 1238.6 1276.13L1236.99 1277.31C1233.12 1272.1 1232.38 1267.72 1235.61 1261.98ZM1273.61 1236.15C1266.72 1232.27 1260.48 1233.28 1256.92 1239.59C1254.1 1244.61 1253.67 1251.74 1256.59 1258.3C1259.55 1259.41 1262.65 1260.96 1266.23 1262.98L1280.64 1271.29C1285.17 1249.84 1282.36 1241.08 1273.61 1236.15ZM1208.74 1298.73C1216 1289.57 1226.07 1286.42 1242.71 1299.62L1285.02 1333.17L1289.93 1326.98L1291.22 1328C1290.55 1338.39 1292.03 1349.24 1295.78 1358.3L1294.26 1359.41L1277.88 1346.42C1274.61 1350.55 1267.7 1359.78 1264.63 1363.65L1261.8 1361.4C1264.15 1358.43 1272.24 1349.3 1275.82 1344.78L1237.89 1314.7C1223.05 1302.94 1215.86 1303.54 1210.64 1310.11C1208.18 1313.21 1207.48 1317.28 1207.72 1319.36L1205.64 1319.6C1203.04 1313.34 1203.62 1305.18 1208.74 1298.73ZM1166.5 1341.65C1181.88 1327.48 1205.82 1329.17 1223 1347.81C1242.18 1368.64 1240.73 1389.67 1224.87 1404.29C1211.19 1416.89 1193.3 1415.46 1181.37 1402.5L1181.18 1401.33L1218.48 1366.97C1217.15 1365.29 1215.7 1363.71 1214.14 1362.02C1197.74 1344.21 1179.92 1341.15 1167.09 1352.98C1160.31 1359.22 1157.82 1368.67 1158.68 1376.17L1156.45 1376.43C1152.93 1362.88 1156.09 1351.24 1166.5 1341.65ZM1220.26 1369.14L1193.86 1393.46C1205.91 1406.3 1216.9 1408.27 1224.17 1401.58C1232.52 1393.88 1230.87 1383.09 1220.26 1369.14ZM1141.03 1369.68C1135.71 1374.46 1134.69 1379.71 1137 1383.12L1192.28 1464.99C1195.5 1469.77 1199.89 1470.38 1206.35 1466.42L1207.46 1468.05L1192.09 1487.96L1189.95 1488.02L1124.72 1391.42C1122.32 1387.87 1116.79 1387.03 1110.33 1390.41L1109.22 1388.77L1139.92 1368.04L1141.03 1369.68ZM1104.6 1394.05C1098.8 1398.23 1097.22 1403.34 1099.14 1406.98L1123.36 1452.84C1125.28 1456.48 1129.31 1458.82 1136.97 1455.34L1137.89 1457.08L1121.93 1477.99L1119.79 1477.81L1086.04 1413.9C1084.04 1410.12 1078.63 1408.69 1071.84 1411.35L1070.92 1409.6L1103.67 1392.3L1104.6 1394.05ZM1146.81 1490.54C1149.27 1495.2 1147.34 1501.06 1142.83 1503.45C1138.17 1505.91 1132.38 1504.12 1129.92 1499.46C1127.46 1494.8 1129.25 1489.02 1133.91 1486.56C1138.42 1484.17 1144.35 1485.88 1146.81 1490.54ZM1027.54 1423.62C1047.29 1416.74 1068.57 1427.81 1076.91 1451.75C1086.22 1478.5 1076.52 1497.22 1056.16 1504.31C1038.59 1510.43 1022.75 1501.99 1016.96 1485.35L1017.25 1484.21L1065.14 1467.53C1064.6 1465.46 1063.89 1463.44 1063.13 1461.26C1055.18 1438.4 1040.05 1428.5 1023.57 1434.24C1014.86 1437.27 1008.82 1444.95 1006.62 1452.17L1004.48 1451.52C1006.64 1437.69 1014.17 1428.27 1027.54 1423.62ZM1065.91 1470.23L1032.01 1482.03C1037.96 1498.61 1047.26 1504.79 1056.59 1501.54C1067.32 1497.81 1070.09 1487.25 1065.91 1470.23ZM992.945 1439.14C986.098 1441.2 982.929 1445.51 983.554 1449.58L991.3 1500.03C992.424 1507.35 996.516 1511.22 1003.84 1510.1L1004.14 1512.05L982.167 1524.09L980.202 1523.22L977.504 1505.65C971.542 1516.72 962.914 1526.71 954.777 1527.96C948.594 1528.91 943.024 1526.26 942.1 1520.24C941.425 1515.85 944.205 1512.26 948.924 1511.53C954.295 1510.71 956.547 1514.53 964.195 1513.35C968.752 1512.65 973.247 1508.3 976.678 1502.44L968.908 1451.83C968.258 1447.6 963.615 1444.48 953.075 1445.27L952.775 1443.31L992.645 1437.19L992.945 1439.14ZM780.579 1476.14C776.464 1498.32 780.874 1504.33 790.425 1506.1C796.738 1507.27 804.834 1504.25 808.806 1497.29C809.185 1494.35 809.684 1490.75 810.315 1487.35L818.096 1445.43C818.877 1441.22 815.521 1436.74 808.548 1434.61L808.909 1432.67L845.331 1439.43L844.971 1441.37C837.83 1441.05 833.416 1444.08 832.665 1448.13L825.905 1484.55C821.79 1506.73 826.2 1512.74 835.751 1514.51C841.902 1515.66 849.452 1512.87 853.628 1506.61L863.421 1453.84C864.203 1449.63 860.847 1445.16 853.874 1443.03L854.235 1441.08L890.657 1447.84L890.297 1449.78C883.156 1449.46 878.742 1452.5 877.99 1456.54L868.678 1506.73C867.326 1514.01 869.914 1519.01 877.199 1520.36L876.838 1522.31L852.127 1526.43L850.557 1524.96L853.171 1510.88L853.069 1510.53C846.248 1519.31 835.352 1522.98 827.744 1521.57C816.898 1519.55 809.837 1513.39 809.297 1500.06C802.529 1510.36 790.512 1514.66 782.418 1513.16C768.496 1510.57 760.843 1501.28 764.989 1478.94L772.77 1437.02C773.551 1432.81 770.195 1428.33 763.222 1426.2L763.583 1424.26L800.006 1431.02L799.645 1432.96C792.504 1432.64 788.09 1435.67 787.339 1439.72L780.579 1476.14ZM706.807 1397.23C712.62 1399.96 715.544 1404.97 712.997 1415.05C724.268 1409.24 735.328 1409.7 743.973 1413.76C753.364 1418.16 755.653 1427.24 751.877 1435.29C747.192 1445.28 737.594 1450.23 699.758 1445.21L694.435 1456.17C686.646 1471.61 688.241 1479.45 695.098 1482.67C703.445 1486.59 708.231 1480.65 713.954 1473.88C720.036 1466.73 724.82 1466.61 727.801 1468C730.633 1469.33 731.918 1473.57 729.96 1477.75C725.415 1487.44 707.762 1491.34 691.962 1483.93C677.057 1476.93 671.902 1468.15 680.041 1451.96C683.896 1444.13 688.669 1434.74 693.414 1424.23C701.936 1405.68 701.941 1402.95 698.066 1401.14C696.277 1400.3 694.218 1400.42 692.913 1401.26L691.623 1399.75C696.526 1395.5 700.844 1394.44 706.807 1397.23ZM735.4 1433.2C738.757 1426.04 737.277 1419.89 730.718 1416.82C725.501 1414.37 718.36 1414.47 712.037 1417.87C711.156 1420.91 709.836 1424.11 708.088 1427.84L700.877 1442.83C722.604 1445.74 731.135 1442.29 735.4 1433.2ZM710.156 1358C715.329 1361.8 716.806 1368.41 713.489 1372.92C710.757 1376.63 706.552 1377.62 702.971 1374.99C697.931 1371.28 699.676 1364.19 695.167 1360.87C690.923 1357.75 679.437 1361.97 663.978 1371.04L645.929 1445.03C644.629 1450.41 646.313 1454.51 649.937 1458.2L648.766 1459.79L617.864 1437.06L619.035 1435.47C626.579 1439.39 630.855 1438.85 632.546 1432.94L647.173 1380.55C631.785 1390.07 618.055 1397.35 603.372 1408.42C598.206 1412.38 597.429 1417.33 603.385 1423.96L602.214 1425.55L579.138 1408.58L580.211 1407.12C585.668 1409.7 591.528 1409.51 600.634 1404.36C616.456 1395.35 633.553 1385.45 650.483 1375.21C678.743 1358.19 698.618 1349.51 710.156 1358ZM549.783 1327.71C533.909 1341.32 534.603 1349.88 541.741 1358.08C546.391 1363.42 555.15 1366.7 562.063 1364.61L602.532 1329.35C605.76 1326.54 605.911 1320.95 601.773 1314.95L603.263 1313.65L627.597 1341.58L626.107 1342.88C620.712 1338.19 615.369 1337.82 612.266 1340.53L573.782 1374.05C568.196 1378.92 567.116 1384.45 571.982 1390.03L570.493 1391.33L548.572 1379.2L548.251 1377.08L559.424 1367.35C549.103 1369.79 537.789 1366.32 531.084 1358.63C521.026 1347.08 519.83 1333.93 537.07 1319.13L569.935 1290.94C572.59 1287.97 572.601 1282.72 568.679 1276.96L570.169 1275.66L594.503 1303.6L593.013 1304.89C587.618 1300.2 582.275 1299.84 579.172 1302.54L549.783 1327.71ZM550.874 1238.14C561.092 1256.38 553.912 1279.27 531.791 1291.66C507.084 1305.5 486.961 1299.22 476.421 1280.41C467.329 1264.17 472.867 1247.11 488.237 1238.5L489.42 1238.59L514.201 1282.83C516.149 1281.93 518.017 1280.89 520.028 1279.76C541.143 1267.93 548.25 1251.31 539.721 1236.08C535.216 1228.04 526.596 1223.43 519.109 1222.53L519.373 1220.31C533.365 1220.02 543.955 1225.78 550.874 1238.14ZM511.679 1284.06L494.139 1252.74C478.85 1261.5 474.392 1271.73 479.219 1280.35C484.771 1290.26 495.648 1291.15 511.679 1284.06Z" fill="white"/>
<path d="M1365.3 783.246L1352 858.958L1286.96 874.432L1352 889.907L1365.3 965.619L1378.59 889.907L1443.64 874.432L1378.59 858.958L1365.3 783.246Z" fill="white"/>
<path d="M1407.04 832.686L1365.3 850.224L1323.56 832.686L1341.1 874.426L1323.56 916.166L1365.3 898.628L1407.04 916.166L1389.51 874.426L1407.04 832.686Z" fill="white"/>
<path d="M465.262 783.246L451.967 858.958L386.919 874.432L451.967 889.907L465.262 965.619L478.558 889.907L543.605 874.432L478.558 858.958L465.262 783.246Z" fill="white"/>
<path d="M507.008 832.686L465.268 850.224L423.527 832.686L441.066 874.426L423.527 916.166L465.268 898.628L507.008 916.166L489.47 874.426L507.008 832.686Z" fill="white"/>
<path d="M925.19 884.372C925.19 867.712 886.643 875.338 876.531 877.57C845.505 884.416 817.025 898.064 792.067 917.6C763.767 939.727 743.677 968.446 730.584 1001.78C725.131 1015.64 723.333 1030.51 730.554 1044.15C739.303 1060.66 773.535 1054.96 788.711 1056.7C789.805 1056.82 789.43 1060.04 789.176 1062.36H655.154C654.24 1061.09 654.165 1056.54 655.483 1056.46C670.659 1055.43 701.401 1059.71 711.004 1045.28C714.689 1039.74 716.427 1032.24 716.427 1024.97L716.621 826.814C716.651 794.424 732.307 765.271 757.325 745.526C803.947 708.747 876.875 712.148 920.186 752.222C940.71 771.218 955.167 797.016 955.227 825.615L955.676 1026.11C955.691 1033.52 957.459 1040.99 961.789 1046.36C972.515 1059.74 999.856 1055.32 1016.04 1056.42C1016.28 1057.79 1016.35 1060.25 1016.29 1062.36H863.587L863.108 1057.37C862.688 1052.98 909.055 1063.25 920.186 1044.54C923.512 1038.95 925.145 1031.77 925.145 1024.88L925.205 884.372H925.19ZM914.478 860.102C921.235 858.379 925.19 854.139 925.175 847.817C925.16 839.608 925.414 831.578 924.965 823.263C923.557 798.02 911.407 775.428 892.201 758.949C855.452 727.428 800.846 725.571 761.94 754.769C740.472 770.889 725.88 795.833 725.88 823.278V999.996C739.857 964.042 760.861 934.094 790.928 910.514C826.479 882.529 869.145 865.885 914.493 860.102H914.478Z" fill="white"/>
<path d="M1179.97 1056.52L1150.9 1055.98C1142.44 1055.82 1133.67 1053.91 1127.32 1048.45C1121.97 1043.85 1119.29 1035.91 1119.26 1028.3L1118.8 826.77C1118.72 794.485 1101.7 765.437 1076.94 745.886C1063.68 735.414 1048.45 728.223 1032.34 724.103C1009.72 717.856 983.323 717.931 962.589 724.418C961.57 724.673 960.567 724.927 959.563 725.212L959.743 725.362C949.975 728.793 941.63 733.721 935.803 740.178C937.705 742.021 940.117 744.163 942.529 746.89C961.616 736.388 983.098 732.148 1004.57 735.504C1012.67 736.822 1020.63 739.16 1028.19 742.381C1028.42 742.485 1028.66 742.575 1028.88 742.68C1029.14 742.785 1029.39 742.905 1029.65 743.025C1031.49 743.849 1033.32 744.733 1035.13 745.691L1035.16 745.661C1065.38 761.182 1088.12 784.028 1088.12 825.631L1088.43 1024.82C1088.43 1032.31 1086.3 1040.06 1082.38 1045.69C1071.35 1061.6 1033.24 1053.96 1025.42 1057.23C1024.46 1057.63 1025.26 1062.38 1027.16 1062.38L1179.5 1062.41C1181.28 1061.26 1181.3 1056.96 1179.94 1056.55L1179.97 1056.52Z" fill="white"/>
</svg>
